<?xml version="1.0" encoding="utf-8"?>
<!-- Generator: Adobe Illustrator 23.0.1, SVG Export Plug-In . SVG Version: 6.00 Build 0)  -->
<svg version="1.1" id="Layer_1" xmlns="http://www.w3.org/2000/svg" xmlns:xlink="http://www.w3.org/1999/xlink" x="0px" y="0px"
	 viewBox="0 0 400 400" style="enable-background:new 0 0 400 400;" xml:space="preserve">
<g>
	<circle cx="144" cy="198" r="44"/>
	<g>
		<path d="M248.6,171.3c-8.2-28.2,2.6-40.8-10-56c-7.9-9.6-21.1-15.2-33-15c-16.6,0.3-18.4,11.8-38,16c-24,5.1-45.9-6.8-48-8
			c-16.2-9.1-17.1-19-31-22c-14.8-3.2-27.9,4.7-30,6c-20.7,12.5-29.4,45.5-21,82c-22.4,34.4-21.2,51.1-16,60
			c9.7,16.6,36.9,12.1,44,30c6.1,15.4-10.8,27.1-4,39c8.8,15.6,46.5,10.8,61,9c19.5-2.5,18.2-5.8,37-8c34.5-4,46.6,6.4,58-3
			c11-9.1,2-20.6,13-40c14.2-24.9,37.9-21.4,42-39C276.2,206.6,257.6,202.3,248.6,171.3z M252.2,218.7
			c-3.4,14.8-23.4,11.9-35.3,32.7c-9.3,16.3-1.6,26-10.9,33.6c-9.6,7.9-19.7-0.9-48.7,2.5c-15.7,1.8-14.7,4.7-31.1,6.7
			c-12.1,1.5-33.3,8.1-40.7-5c-5.7-10,6-16-7.1-35.3c-9.1-13.4-28.8-11.3-36.9-25.2c-4.4-7.5-5.4-21.5,13.4-50.3
			c-7-30.6,0.3-58.3,17.6-68.8c1.8-1.1,8.6-5,21-2.3c11.7,2.6,15.4,10.3,29,18c1.7,1,21.3,8.8,41.5,4.5c16.4-3.5,18-13.2,31.9-13.4
			c10-0.2,21,4.6,27.7,12.6c10.5,12.7,1.5,23.4,8.4,47C239.6,201.9,255.2,205.5,252.2,218.7z"/>
		<path d="M284.2,294.5c-8.9,0.4-15.6-2.2-15.6-2.2s16-79,14-102s-19-56-19-84c0,0,2.4,0.7,7,0.7c0.8,4.6,2.2,9.6,4,15.3
			c7.2,22.7,11.6,24.8,16,42c3,11.5,3.5,20.3,4,29C296.9,231.6,287.9,277.2,284.2,294.5z"/>
		<path d="M319.6,187.3c3,36,7,80-1,107c0,0-9-7-23-2c-2.3,0.8-4.5,1.4-6.7,1.7c4.2-21.5,11.6-64.9,9.7-99.7
			c-0.6-10.4-1.1-19.2-4-31c-4.7-18.7-9.4-20.5-14-41c-1.2-5.5-2.3-10.5-3.1-15.6c4.4-0.4,9.8-1.4,16.1-3.4c19-6,13-7,31-5
			C324.6,98.3,316.6,151.3,319.6,187.3z"/>
		<path d="M345.2,279.5c-8.1,0.3-14.1-1.8-14.1-1.8s14.4-65,12.6-83.9s-17.1-46.1-17.1-69.1c0,0,2.2,0.6,6.3,0.6
			c0.8,3.8,2,7.9,3.6,12.6c6.5,18.6,10.4,20.4,14.4,34.6c2.7,9.5,3.1,16.7,3.6,23.9C356.6,227.8,348.5,265.3,345.2,279.5z"/>
		<path d="M377.1,191.3c2.7,29.6,6.3,65.8-0.9,88c0,0-8.1-5.8-20.7-1.6c-2,0.7-4.1,1.1-6,1.4c3.8-17.7,10.5-53.4,8.7-82
			c-0.5-8.5-1-15.8-3.6-25.5c-4.2-15.4-8.5-16.9-12.6-33.7c-1.1-4.6-2.1-8.6-2.8-12.8c4-0.4,8.8-1.2,14.5-2.8
			c17.1-4.9,11.7-5.8,28-4.1C381.6,118.1,374.4,161.7,377.1,191.3z"/>
	</g>
</g>
</svg>
