<?xml version="1.0" encoding="utf-8"?>
<!-- Generator: Adobe Illustrator 23.0.1, SVG Export Plug-In . SVG Version: 6.00 Build 0)  -->
<svg version="1.1" id="Layer_1" xmlns="http://www.w3.org/2000/svg" xmlns:xlink="http://www.w3.org/1999/xlink" x="0px" y="0px"
	 viewBox="0 0 400 400" style="enable-background:new 0 0 400 400;" xml:space="preserve">
<g>
	<g>
		<path d="M200,137.7c-34.6,0-62.7,28.1-62.7,62.7s28.1,62.7,62.7,62.7s62.7-28.1,62.7-62.7S234.7,137.7,200,137.7z M200,258.1
			c-31.9,0-57.7-25.8-57.7-57.7c0-31.9,25.8-57.7,57.7-57.7s57.7,25.8,57.7,57.7C257.8,232.3,231.9,258.1,200,258.1z"/>
		<path d="M200,137.7c-34.6,0-62.7,28.1-62.7,62.7s28.1,62.7,62.7,62.7s62.7-28.1,62.7-62.7S234.7,137.7,200,137.7z M200,258.1
			c-31.9,0-57.7-25.8-57.7-57.7c0-31.9,25.8-57.7,57.7-57.7s57.7,25.8,57.7,57.7C257.8,232.3,231.9,258.1,200,258.1z"/>
		<path d="M200,137.7c-34.6,0-62.7,28.1-62.7,62.7s28.1,62.7,62.7,62.7s62.7-28.1,62.7-62.7S234.7,137.7,200,137.7z M200,258.1
			c-31.9,0-57.7-25.8-57.7-57.7c0-31.9,25.8-57.7,57.7-57.7s56,44.7,9,65.7C179.9,221.4,231.9,258.1,200,258.1z"/>
		<path d="M200,85.4c-63.5,0-115,51.5-115,115c0,63.5,51.5,115,115,115s115-51.5,115-115C315,136.9,263.5,85.4,200,85.4z M200,306.3
			c-58.5,0-105.9-47.4-105.9-105.9S141.6,94.5,200,94.5s105.9,47.4,105.9,105.9S258.5,306.3,200,306.3z"/>
	</g>
	<path d="M363,234c0,0.1,0,0.1,0,0.2c0,0.1,0,0.1,0,0.2c0,1,0,2,0,3.1h0.6c0.8,2.2,2.3,4,4.3,5.2v4.6H363v58.5
		c0,5.4,4.4,9.8,9.8,9.8c5.4,0,9.8-4.4,9.8-9.8v-58.5h-4.9v-4.6c2-1.2,3.5-3,4.3-5.2h0.6V84.6C382.5,84.6,363.4,121.3,363,234z"/>
	<path d="M34.2,147.9v166.5h6.2V147.9c0,0,16.7,0,16.7-16.7s0-46.6,0-46.6h-6.2v47.5c0,2.9-2.4,5.3-5.3,5.3c-2.9,0-5.3-2.4-5.3-5.3
		V84.6h-0.9h-4.4h-0.9v47.5c0,2.9-2.4,5.3-5.3,5.3c-2.9,0-5.3-2.4-5.3-5.3V84.6h-6.2c0,0,0,29.9,0,46.6S34.2,147.9,34.2,147.9z"/>
</g>
</svg>
