<?xml version="1.0" encoding="utf-8"?>
<!-- Generator: Adobe Illustrator 23.0.1, SVG Export Plug-In . SVG Version: 6.00 Build 0)  -->
<svg version="1.1" xmlns="http://www.w3.org/2000/svg" xmlns:xlink="http://www.w3.org/1999/xlink" x="0px" y="0px"
	 viewBox="0 0 1224 792" style="enable-background:new 0 0 1224 792;" xml:space="preserve">
<style type="text/css">
	.st0{fill:#369583;}
	.st1{fill:#ACDCCC;}
	.st2{fill:#28695D;}
	.st3{fill:none;}
	.st4{fill:#F9A165;}
	.st5{fill:#FFFFFF;stroke:#F9A165;stroke-width:0.25;stroke-miterlimit:10;}
</style>
<g id="Lable">
	<g>
		<polygon class="st0" points="1156.4,333.9 1181.2,279.8 22.1,538.6 21.7,539.1 21.7,539.1 21.7,539.1 21.3,539.6 21.3,539.6 
			21.3,539.6 20.9,540.2 20.9,540.2 20.9,540.2 20.5,540.7 20.5,540.7 20.5,540.7 20.2,541.2 64.9,572.4 40.1,626.5 1199.2,367.7 
			1198.7,367.4 1198.8,367.4 1199.2,367.7 1200,366.7 1200.4,366.2 1200.4,366.2 1201.1,365.1 		"/>
		<polygon class="st1" points="1181.5,279.3 22.5,538.1 67.3,569.3 42.5,623.4 1201.5,364.6 1156.7,333.4 		"/>
		<g>
			<g>
				<path class="st0" d="M101.4,552c-0.1-0.1,0-0.5,0.2-1c0.2-0.6,0.3-1.3,0.5-2.1c0.2-0.8,0.3-1.8,0.5-2.8c0.1-1,0.1-2.1,0.1-3.1
					c-0.1-1-0.3-2.1-0.7-3c-0.4-1-1.1-1.9-2-2.6c-0.5-0.4-1.2-0.5-2-0.4s-1.7,0.4-2.7,1c-0.9,0.5-1.9,1.2-2.9,2.1
					c-1,0.9-1.8,1.8-2.5,2.9c-0.7,1-1.3,2.1-1.7,3.3c-0.4,1.2-0.5,2.3-0.4,3.4c0.1,0.9,0.3,1.7,0.7,2.4c0.3,0.7,0.7,1.3,1.1,1.9
					c0.4,0.6,0.8,1.1,1.2,1.5c0.4,0.5,0.8,0.9,1.1,1.2c0.5,0.5,1.1,1,2,1.5c0.9,0.5,1.8,1.1,2.9,1.8c1,0.7,2.1,1.5,3.2,2.4
					c1.1,0.9,2.1,2,3.1,3.2s1.7,2.7,2.4,4.3c0.6,1.7,1.1,3.5,1.3,5.7c0.2,3.1,0.1,5.8-0.4,8c-0.5,2.2-1.2,4.1-2.1,5.6
					s-1.9,2.6-3,3.5c-1.1,0.8-2,1.4-2.7,1.7c-0.6,0.3-1.3,0.5-2.1,0.8c-0.8,0.3-1.7,0.5-2.7,0.5c-1,0.1-2,0-3-0.2
					c-1.1-0.2-2.1-0.7-3-1.4c-1.1-0.8-2.1-1.8-2.8-2.8c-0.7-0.9-1.3-2-1.9-3.3c-0.5-1.3-0.7-2.7-0.6-4.2c0.2-0.4,0.5-0.8,0.8-1.2
					c0.3-0.4,0.6-0.7,1-1c0.4-0.3,0.7-0.7,1.2-1c0.5-0.3,1-0.5,1.5-0.8c0.4-0.2,0.9-0.3,1.4-0.5c0.5-0.1,1-0.2,1.5-0.1
					c-0.5,0.8-0.7,1.6-0.9,2.2c-0.1,0.4-0.1,0.7-0.2,0.9c0,0.8,0.2,1.7,0.5,2.8c0.3,1.1,0.8,2,1.4,3c0.6,0.9,1.4,1.6,2.3,2.2
					c0.9,0.5,2,0.7,3.3,0.5c3.1-0.6,5.1-3.5,6.1-8.7c0.4-1.6,0.4-3.2,0.1-4.7c-0.3-1.5-0.9-2.9-1.6-4.2c-0.7-1.3-1.5-2.5-2.5-3.5
					c-0.9-1.1-1.8-1.9-2.7-2.6c-0.9-0.7-1.9-1.4-3.1-2.2c-1.2-0.8-2.4-1.7-3.5-2.6c-1.2-1-2.3-2.1-3.4-3.3c-1.1-1.2-1.9-2.6-2.5-4.2
					c-0.9-2.2-1.1-4.3-0.8-6.4c0.3-2.1,1-3.9,2-5.7c1-1.7,2.1-3.2,3.5-4.4c1.4-1.2,2.6-2.1,3.8-2.6c6.4-2.8,11-2.7,13.9,0.4
					c1.2,1.1,2,2.5,2.4,3.9c0.4,1.5,0.7,2.9,0.7,4.2c0,1.3-0.1,2.5-0.2,3.5c-0.2,1-0.3,1.5-0.4,1.6c-0.2,0.3-0.5,0.7-1,1.1
					c-0.5,0.4-1.3,0.9-2.4,1.4c-0.3,0.2-0.6,0.3-1,0.3c-0.3,0.1-0.6,0.1-1,0.1C101.9,552.1,101.6,552.1,101.4,552z"/>
				<path class="st0" d="M115.1,554.3c0.2-0.3,0.5-0.6,1-0.9s1.1-0.6,1.7-0.8c0.6-0.2,1.2-0.4,1.7-0.6c0.5-0.1,0.8-0.2,0.9-0.2
					c0,0,0,0.5,0,1.3c-0.1,0.9-0.1,1.9-0.3,3.1c-0.1,1.2-0.2,2.4-0.4,3.6c-0.1,1.3-0.2,2.3-0.3,3c0,0.8-0.1,1.7-0.2,2.6
					c-0.1,1-0.1,1.9-0.2,2.9c0,0.9,0,1.8,0.1,2.6c0.1,0.8,0.3,1.4,0.6,1.7c0.3,0.4,0.6,0.7,0.9,0.9s0.6,0.2,0.9,0.1
					c0.8-0.2,1.8-0.9,2.8-2c1.1-1.2,2.1-2.5,3.1-4.1s1.9-3.1,2.8-4.6c0.8-1.5,1.4-2.7,1.8-3.6c0.2-0.5,0.5-0.8,0.8-1
					c0.3-0.2,0.6-0.2,0.9-0.1c0.3,0.1,0.5,0.3,0.6,0.7c0.1,0.4,0.1,0.8-0.1,1.4c-0.4,1.3-1.1,2.9-2,4.7c-0.9,1.9-1.9,3.7-3.1,5.4
					c-1.1,1.8-2.3,3.3-3.4,4.6c-1.2,1.3-2.2,2.1-3,2.3c-0.7,0.2-1.4,0.2-2.2,0.1c-0.7-0.1-1.5-0.3-2.1-0.7c-0.7-0.3-1.3-0.8-1.8-1.3
					c-0.5-0.5-0.9-1.2-1.1-1.8c-0.4-1-0.7-2.4-1-4.2c-0.3-1.8-0.5-3.7-0.6-5.6c-0.1-1.9-0.1-3.8,0-5.6S114.6,555.2,115.1,554.3z
					 M120.7,539.4c0,0.5-0.2,1-0.4,1.5c-0.3,0.5-0.6,0.9-0.9,1.3c-0.4,0.4-0.8,0.6-1.2,0.8c-0.4,0.2-0.8,0.2-1.2,0
					c-1-0.5-1.6-1.1-1.9-1.8c-0.2-0.7-0.2-1.5,0.1-2.3c0.3-0.8,0.6-1.4,1.2-2.1c0.5-0.6,1-1,1.4-1.2c0.4-0.2,0.8-0.2,1.2,0
					c0.4,0.2,0.7,0.5,1,0.9c0.3,0.4,0.5,0.8,0.6,1.4C120.6,538.5,120.7,538.9,120.7,539.4z"/>
				<path class="st0" d="M151.8,571.8c-1,0.2-1.8,0.2-2.6,0c-0.8-0.2-1.4-0.5-2-1c-0.5-0.5-1-1.1-1.3-1.8c-0.3-0.7-0.4-1.5-0.4-2.4
					c0-0.6,0-1.4,0.1-2.4c0.1-1,0.1-2.1,0.2-3.3c0.1-1.2,0.1-2.4,0.1-3.5c0-1.2-0.1-2.2-0.2-3.2c-0.1-0.9-0.3-1.7-0.7-2.2
					c-0.3-0.6-0.7-0.8-1.3-0.6c-0.7,0.1-1.3,0.5-1.9,1.1c-0.6,0.6-1.2,1.3-1.7,2.2c-0.6,0.9-1.1,1.9-1.6,3c-0.5,1.1-1,2.3-1.5,3.4
					c-0.1,1.5-0.1,2.7-0.1,3.8c0,1.1,0,2.1,0,2.9s0,1.6,0,2.3c0,0.7,0,1.3,0,1.9c0,0.4-0.3,0.9-0.8,1.4c-0.5,0.5-1.1,1-1.8,1.4
					c-0.7,0.4-1.2,0.7-1.8,0.8c-0.5,0.1-0.8,0-0.8-0.4c0-0.3,0-0.8,0-1.7c0-0.9,0.1-2,0.1-3.2c0-1.2,0.1-2.5,0.1-3.9
					c0-1.4,0.1-2.7,0.1-3.9c0-1,0-2.1,0-3.3c0-1,0-2.2,0-3.6c0-1.4,0-2.9,0.1-4.5c0.2-0.3,0.5-0.6,0.8-0.8c0.3-0.2,0.6-0.4,0.9-0.6
					c0.3-0.2,0.6-0.4,1-0.5c0.3-0.1,0.7-0.1,1-0.2c0.3,0,0.6,0,1,0c0.3,0,0.7,0.1,0.9,0.3c-0.1,0.3-0.1,0.7-0.2,1.3
					c0,0.5-0.1,1.1-0.1,1.7c0,0.7-0.1,1.4-0.2,2.1c0.4-0.9,0.8-1.7,1.3-2.6c0.5-0.9,1.1-1.8,1.8-2.5s1.4-1.5,2.2-2.1
					c0.8-0.6,1.7-1,2.7-1.2c0.8-0.2,1.6-0.1,2.3,0.2c0.7,0.3,1.4,0.8,1.9,1.5c0.5,0.7,1,1.6,1.3,2.7s0.4,2.3,0.4,3.7l-0.1,2.8
					c0,0.9,0,2-0.1,3.2s-0.1,2.6-0.3,4.1c0,0.9,0,1.7,0.3,2.4c0.2,0.6,0.7,0.9,1.4,0.7c0.7-0.2,1.6-0.8,2.5-2s1.8-2.5,2.7-4
					c0.9-1.5,1.7-3.1,2.4-4.6c0.7-1.6,1.3-2.8,1.6-3.7c0.3-0.6,0.5-1,0.8-1.3c0.3-0.2,0.5-0.3,0.8-0.2c0.2,0.1,0.4,0.3,0.5,0.8
					s0.1,1-0.1,1.7c-0.2,0.6-0.4,1.5-0.8,2.6c-0.4,1.1-0.9,2.2-1.5,3.5c-0.6,1.2-1.2,2.5-1.9,3.8c-0.7,1.3-1.5,2.5-2.3,3.6
					c-0.8,1.1-1.7,2-2.6,2.8C153.6,571.1,152.7,571.6,151.8,571.8z"/>
				<path class="st0" d="M172.5,563.4c1.3-0.3,2.6-1.1,3.9-2.4c1.3-1.3,2.6-2.8,3.7-4.5s2.2-3.3,3.1-5c0.9-1.7,1.6-3,2-4
					c0.3-0.6,0.5-1,0.8-1.2c0.3-0.2,0.6-0.2,0.8,0c0.2,0.2,0.3,0.5,0.4,0.9c0.1,0.4,0,1-0.2,1.6c-0.2,0.6-0.5,1.4-1,2.4
					s-1.1,2.2-1.7,3.5c-0.7,1.3-1.5,2.6-2.4,4c-0.9,1.4-1.9,2.7-3,3.9c-1.1,1.2-2.2,2.3-3.5,3.1c-1.2,0.9-2.5,1.5-3.8,1.8
					c-1.8,0.4-3.4,0.4-4.8,0c-1.4-0.4-2.6-1-3.5-1.9c-1-0.9-1.8-1.9-2.3-3.2c-0.6-1.2-1-2.5-1.3-3.7s-0.4-2.9-0.2-4.9
					c0.1-2,0.6-4,1.3-6c0.7-2,1.8-3.8,3.3-5.4c1.5-1.6,3.4-2.7,5.7-3.2c1.3-0.3,2.6-0.1,3.7,0.6c1.1,0.7,1.9,1.8,2.2,3.4
					c0.2,0.7,0.2,1.5,0.1,2.2c-0.1,0.8-0.3,1.5-0.6,2.1c-0.3,0.6-0.7,1.2-1.2,1.6c-0.5,0.5-1.1,0.8-1.7,0.9c-0.5,0.1-1,0-1.4-0.3
					c-0.4-0.3-0.6-0.7-0.8-1.2c-0.2-0.5-0.3-1-0.3-1.5s-0.1-0.8,0-1c0.1-0.3,0.3-0.6,0.5-0.8c0.2-0.2,0.5-0.4,0.8-0.6
					c0.2-0.2,0.4-0.4,0.5-0.7c0.1-0.3,0.1-0.6,0-0.8c-0.1-0.3-0.2-0.5-0.4-0.7c-0.2-0.2-0.5-0.2-0.9-0.1c-0.4,0.1-1,0.5-1.8,1.3
					c-0.8,0.8-1.6,1.9-2.4,3.3c-0.7,1.4-1.3,3-1.7,5c-0.4,1.9-0.3,4,0.2,6.4c0.3,1.4,0.7,2.4,1.3,3.2c0.6,0.8,1.3,1.3,2,1.7
					c0.7,0.3,1.5,0.5,2.3,0.6C171,563.6,171.8,563.5,172.5,563.4z"/>
				<path class="st0" d="M210.9,543.6c-0.8,2.1-1.8,4.1-3,6.2c-1.2,2-2.5,3.9-4,5.6c-1.5,1.7-3,3.2-4.7,4.4c-1.7,1.2-3.4,2-5.1,2.4
					c-0.9,0.2-2,0.2-3.1,0c-1.2-0.2-2.3-0.6-3.4-1.3s-2.1-1.7-2.9-3c-0.9-1.3-1.4-3-1.7-5.1c-0.2-1.7-0.1-3.6,0.4-5.6
					c0.5-2,1.2-4,2.1-5.8c0.9-1.8,2.1-3.4,3.5-4.8c1.4-1.4,2.9-2.3,4.6-2.6c1.6-0.4,2.8-0.2,3.7,0.4c0.9,0.6,1.4,1.5,1.6,2.7
					c0.2,1.3,0.1,2.5-0.3,3.7c-0.4,1.2-0.8,2.3-1.5,3.3c-0.6,1-1.3,2-2.1,2.9c-0.8,0.9-1.5,1.7-2.2,2.5c-0.8,0.8-1.5,1.6-2.2,2.3
					c-0.7,0.7-1.3,1.4-1.8,2c0.3,1,0.7,1.8,1.2,2.4c0.5,0.6,1,1.1,1.6,1.4c0.6,0.3,1.2,0.5,1.9,0.5c0.7,0,1.4,0,2-0.2
					c1.4-0.3,2.8-1.1,4.1-2.3c1.3-1.2,2.6-2.6,3.8-4.2c1.2-1.6,2.3-3.2,3.2-4.8c1-1.6,1.7-3,2.3-4.2c0.2-0.4,0.5-0.6,0.8-0.8
					c0.3-0.1,0.6-0.1,0.8,0c0.2,0.1,0.4,0.3,0.5,0.7C211.1,542.7,211.1,543.1,210.9,543.6z M192.7,537.8c-0.5,0.1-1,0.5-1.6,1.1
					s-1.1,1.5-1.5,2.6c-0.5,1.1-0.8,2.3-1.1,3.8c-0.3,1.5-0.4,3.1-0.2,4.8c0.4-0.5,0.9-1,1.4-1.5c0.5-0.5,1-1.1,1.5-1.6
					c1.5-1.7,2.4-3.2,2.9-4.4c0.5-1.2,0.7-2.1,0.6-2.9c-0.1-0.8-0.3-1.3-0.6-1.6C193.6,537.8,193.2,537.7,192.7,537.8z"/>
			</g>
			<g>
				<path class="st0" d="M1049.1,365.8c-0.2-0.3-0.7-0.5-1.5-0.5c-0.9,0-1.8,0.1-2.8,0.2c-1.2,0.2-2.5,0.4-3.9,0.7
					c-1,0.2-2,0.5-2.8,0.7c-0.8,0.2-1.5,0.5-2.2,0.8c-0.7,0.3-1.2,0.6-1.4,0.9c-0.4,0.3-1,0.5-1.8,0.6c-0.8,0-1.4-0.3-1.8-0.9
					c-0.1-0.2-0.3-0.5-0.5-0.7c-0.2-0.2-0.3-0.3-0.5-0.5c-0.2-0.2-0.4-0.3-0.6-0.4c0.4-0.8,0.8-1.6,1.3-2.3s1-1.4,1.7-2.1
					c0.6-0.7,1.4-1.5,2.2-2.2c0.8-0.8,1.7-1.6,2.7-2.6c1-0.9,1.9-1.9,3-3c1-1.1,1.9-2.4,2.7-3.7c0.8-1.3,1.4-2.7,1.8-4.1
					c0.4-1.4,0.5-2.9,0.3-4.4c-0.2-1.2-0.7-2-1.5-2.3c-0.8-0.3-1.7-0.4-2.7-0.1c-0.5,0.1-1,0.4-1.6,0.8c-0.6,0.4-1.1,0.9-1.6,1.6
					c-0.5,0.6-0.9,1.3-1.1,2c-0.3,0.7-0.4,1.5-0.2,2.2c0,0.2,0.1,0.4,0.2,0.5c0.1,0.1,0.2,0.2,0.3,0.4c0.1,0.1,0.3,0.2,0.5,0.2
					c-0.5,0.4-1,0.8-1.6,1c-0.3,0.1-0.5,0.2-0.8,0.3c-0.3,0.1-0.6,0.1-1,0.2c-0.4,0.1-0.8,0-1.1,0c-0.4-0.1-0.7-0.2-1-0.4
					c-0.3-0.2-0.5-0.5-0.5-1c-0.1-0.5,0.1-1.1,0.4-2c0.4-0.9,1-1.8,2-2.8c0.9-1,2.2-1.9,3.7-2.8c1.5-0.9,3.4-1.6,5.7-2.1
					c1.5-0.3,2.7-0.4,3.6-0.1c0.9,0.3,1.6,0.6,2.1,1.2c0.5,0.5,0.8,1.1,1,1.7s0.3,1.1,0.3,1.5c0.2,1,0.1,2.1-0.3,3.3
					c-0.4,1.2-0.9,2.4-1.7,3.7c-0.7,1.2-1.6,2.5-2.6,3.8c-1,1.3-2,2.4-3,3.6s-2.1,2.2-3.1,3.2c-1,1-1.9,1.8-2.7,2.5
					c-0.8,0.8-1.4,1.5-1.8,2.1c-0.4,0.7-0.6,1.3-0.8,1.8c0.8-0.5,1.9-1,3.3-1.6c1.4-0.6,3.1-1.1,5-1.6c1.1-0.3,2.2-0.5,3.2-0.6
					c0.8-0.1,1.6-0.2,2.4-0.3c0.8,0,1.3,0,1.7,0.2c0.1,0.2,0.2,0.5,0.3,0.7c0.1,0.2,0.1,0.4,0.1,0.6c0,0.2,0,0.4,0,0.6
					c0,0.2-0.1,0.4-0.1,0.6C1049.6,364.8,1049.4,365.3,1049.1,365.8z"/>
				<path class="st0" d="M1067,332.2c1.3-0.3,2.6-0.2,3.7,0.2c1.1,0.5,2.1,1.2,2.9,2.2s1.5,2.2,2,3.6c0.5,1.4,0.8,2.9,0.9,4.5
					c0.2,3.2-0.1,6-0.9,8.3c-0.8,2.3-1.8,4.3-3,5.8c-1.2,1.5-2.5,2.7-4,3.6c-1.4,0.8-2.7,1.4-3.8,1.6c-0.8,0.2-1.7,0.2-2.7,0
					c-0.9-0.2-1.8-0.6-2.7-1.2c-0.9-0.6-1.6-1.5-2.4-2.7c-0.7-1.1-1.3-2.6-1.7-4.3c-0.3-1.1-0.4-2.3-0.3-3.8
					c0.1-1.4,0.3-2.9,0.7-4.4c0.4-1.5,0.9-3,1.6-4.5c0.7-1.5,1.5-2.8,2.4-4.1c0.9-1.2,2-2.3,3.2-3.2
					C1064.2,333.1,1065.6,332.5,1067,332.2z M1072.2,342.6c0-0.1-0.1-0.4-0.1-0.9c0-0.5-0.1-1.1-0.3-1.8c-0.1-0.7-0.3-1.3-0.5-2.1
					c-0.2-0.7-0.5-1.3-0.9-1.9c-0.4-0.6-0.9-1-1.4-1.3c-0.6-0.3-1.2-0.3-2-0.2c-0.8,0.2-1.7,0.8-2.6,2c-1,1.2-1.8,2.7-2.6,4.5
					c-0.7,1.9-1.2,4-1.5,6.4c-0.3,2.4-0.1,4.9,0.6,7.5c0.1,0.3,0.2,0.7,0.4,1.2c0.2,0.6,0.5,1.1,0.9,1.7c0.4,0.5,0.8,1,1.4,1.4
					c0.5,0.4,1.1,0.5,1.8,0.3c1-0.2,2-0.9,2.9-2.1c0.9-1.1,1.7-2.5,2.3-4.2c0.6-1.6,1.1-3.4,1.4-5.3S1072.3,344.4,1072.2,342.6z"/>
				<path class="st0" d="M1100.1,354.4c-0.2-0.3-0.7-0.5-1.5-0.5c-0.9,0-1.8,0.1-2.8,0.2c-1.2,0.2-2.5,0.4-3.9,0.7
					c-1,0.2-2,0.5-2.8,0.7c-0.8,0.2-1.5,0.5-2.2,0.8c-0.7,0.3-1.2,0.6-1.4,0.9c-0.4,0.3-1,0.5-1.8,0.6c-0.8,0-1.4-0.3-1.8-0.9
					c-0.1-0.2-0.3-0.5-0.5-0.7c-0.2-0.2-0.3-0.3-0.5-0.5c-0.2-0.2-0.4-0.3-0.6-0.4c0.4-0.8,0.8-1.6,1.3-2.3s1-1.4,1.7-2.1
					c0.6-0.7,1.4-1.5,2.2-2.2c0.8-0.8,1.7-1.6,2.7-2.6c1-0.9,1.9-1.9,3-3c1-1.1,1.9-2.4,2.7-3.7c0.8-1.3,1.4-2.7,1.8-4.1
					c0.4-1.4,0.5-2.9,0.3-4.4c-0.2-1.2-0.7-2-1.5-2.3s-1.7-0.4-2.7-0.1c-0.5,0.1-1,0.4-1.6,0.8c-0.6,0.4-1.1,0.9-1.6,1.6
					c-0.5,0.6-0.9,1.3-1.1,2c-0.3,0.7-0.4,1.5-0.2,2.2c0,0.2,0.1,0.4,0.2,0.5c0.1,0.1,0.2,0.2,0.3,0.4c0.1,0.1,0.3,0.2,0.5,0.2
					c-0.5,0.4-1,0.8-1.6,1c-0.3,0.1-0.5,0.2-0.8,0.3c-0.3,0.1-0.6,0.1-1,0.2c-0.4,0.1-0.8,0-1.1,0c-0.4-0.1-0.7-0.2-1-0.4
					c-0.3-0.2-0.5-0.5-0.5-1c-0.1-0.5,0.1-1.1,0.4-2c0.4-0.9,1-1.8,2-2.8c0.9-1,2.2-1.9,3.7-2.8s3.4-1.6,5.7-2.1
					c1.5-0.3,2.7-0.4,3.6-0.1c0.9,0.3,1.6,0.6,2.1,1.2c0.5,0.5,0.8,1.1,1,1.7c0.2,0.6,0.3,1.1,0.3,1.5c0.2,1,0.1,2.1-0.3,3.3
					c-0.4,1.2-0.9,2.4-1.7,3.7c-0.7,1.2-1.6,2.5-2.6,3.8s-2,2.4-3,3.6c-1,1.1-2.1,2.2-3.1,3.2c-1,1-1.9,1.8-2.7,2.5
					c-0.8,0.8-1.4,1.5-1.8,2.1c-0.4,0.7-0.6,1.3-0.8,1.8c0.8-0.5,1.9-1,3.3-1.6c1.4-0.6,3.1-1.1,5-1.6c1.1-0.3,2.2-0.5,3.2-0.6
					c0.8-0.1,1.6-0.2,2.4-0.3c0.8,0,1.3,0,1.7,0.2c0.1,0.2,0.2,0.5,0.3,0.7c0.1,0.2,0.1,0.4,0.1,0.6c0,0.2,0,0.4,0,0.6
					c0,0.2-0.1,0.4-0.1,0.6C1100.6,353.4,1100.4,353.9,1100.1,354.4z"/>
				<path class="st0" d="M1125.8,338.7c0.2,0.9,0.1,2-0.2,3.2c-0.3,1.2-1,2.4-1.8,3.6c-0.9,1.2-2,2.2-3.3,3.2c-1.4,1-3,1.6-4.8,2.1
					c-1.9,0.4-3.4,0.6-4.6,0.5c-1.2-0.1-2.2-0.4-3-0.8c-0.8-0.4-1.3-0.8-1.7-1.4c-0.3-0.5-0.6-1-0.7-1.4c-0.1-0.4,0.1-0.7,0.5-1
					c0.4-0.3,0.9-0.6,1.5-0.8c0.6-0.2,1.2-0.5,1.8-0.6c0.6-0.2,1.2-0.3,1.6-0.4c-0.1,0.2-0.1,0.6,0,1.1c0,0.5,0.2,1,0.5,1.4
					c0.3,0.4,0.8,0.7,1.5,1c0.7,0.2,1.6,0.2,2.9-0.1c1-0.2,1.8-0.7,2.6-1.3c0.8-0.7,1.4-1.4,1.9-2.3c0.5-0.9,0.8-1.8,1-2.7
					c0.2-0.9,0.2-1.8,0.1-2.6c-0.2-0.8-0.6-1.4-1.2-1.8c-0.7-0.4-1.5-0.5-2.7-0.2c-0.5,0.1-0.9,0.2-1.4,0.4
					c-0.4,0.1-0.9,0.3-1.4,0.6c-0.5,0.3-1,0.6-1.6,0.9l-1.6-1.8c1.1-0.6,2.3-1.4,3.6-2.3c1.2-0.9,2.4-1.9,3.4-2.9
					c1-1.1,1.8-2.2,2.3-3.4c0.6-1.2,0.7-2.5,0.5-3.8c-0.1-0.8-0.5-1.3-1.3-1.7c-0.8-0.3-1.8-0.4-3.1-0.1c-0.6,0.1-1.3,0.4-2,0.8
					c-0.7,0.4-1.4,0.8-2,1.3c-0.6,0.5-1,1.1-1.4,1.7c-0.3,0.6-0.4,1.3-0.3,1.9c0.1,0.4,0.2,0.7,0.4,0.9c0.2,0.2,0.4,0.4,0.7,0.5
					c0.3,0.1,0.7,0.1,1.2,0c-0.4,0.4-0.9,0.6-1.3,0.9c-0.4,0.2-0.8,0.4-1.1,0.5c-0.4,0.2-0.7,0.3-1,0.3c-0.4,0.1-0.9,0.1-1.3,0.1
					c-0.4,0-0.8-0.1-1.2-0.2c-0.4-0.1-0.7-0.4-1-0.7c-0.3-0.3-0.5-0.7-0.6-1.3s0-1.2,0.3-2c0.3-0.8,0.8-1.7,1.6-2.5
					c0.8-0.9,1.9-1.7,3.3-2.5c1.4-0.8,3.2-1.4,5.5-1.9c1-0.2,2-0.3,3-0.3c1,0,1.9,0.1,2.8,0.4c0.8,0.3,1.6,0.7,2.1,1.2
					c0.6,0.6,1,1.3,1.1,2.2c0.1,0.7,0.1,1.5-0.2,2.5c-0.3,0.9-0.7,1.9-1.3,2.8c-0.6,1-1.4,1.9-2.4,2.9c-1,1-2.1,1.9-3.5,2.8
					c0.6-0.1,1.4-0.2,2.1-0.3c0.8,0,1.5,0,2.2,0.2c0.7,0.2,1.3,0.5,1.9,1C1125.3,337,1125.6,337.7,1125.8,338.7z"/>
			</g>
		</g>
		<ellipse class="st0" cx="604.4" cy="395.3" rx="404.9" ry="395.3"/>
		<ellipse class="st1" cx="604.4" cy="395.3" rx="398.1" ry="388.7"/>
		<ellipse class="st2" cx="604.4" cy="395.3" rx="367.2" ry="358.5"/>
	</g>
	<line class="st3" x1="1224" y1="262.9" x2="1215.6" y2="278.2"/>
	<line class="st3" x1="8.3" y1="278.2" x2="0" y2="263"/>
</g>
<g id="Title">
	<path class="st4" d="M1095.9,415.7c-1.1-2.8-2.9-3.9-4.3-4.3c-1.3-0.4-3.3-0.5-5.7,1c-1.8,1-3.1,2.6-3.9,4.6
		c-0.1,0.2-0.2,0.5-0.3,0.7c-1.2,1-2.1,2.2-2.7,3.8c-0.1,0.2-0.2,0.5-0.3,0.7c-1.2,1-2.1,2.2-2.7,3.8c-0.1,0.2-0.2,0.5-0.3,0.7
		c-1.2,1-2.1,2.2-2.7,3.8c-0.1,0.2-0.2,0.5-0.3,0.7c-1.2,1-2.1,2.2-2.7,3.8c-0.1,0.2-0.2,0.5-0.3,0.7c-1.2,1-2.1,2.2-2.7,3.8
		c-0.8,1.7-2,4.3-3.6,7.7c-1.6,3.5-3.6,7.5-6,11.9c-1.4,2.6-2.9,5.3-4.5,8c-2.2,2.5-4.3,4.8-6.5,6.7c-2.8,2.5-5.6,4-8.1,4.5
		c-4.6,0.9-5.5,0.1-5.5,0c-0.9-1-1.7-2.4-2.4-4.1c-0.9-2.9-0.6-6.5,0.9-10.8c1.6-4.7,3.3-9,5.1-12.8c3-6.3,5.5-12.2,7.5-17.4
		c2.1-5.7,2.4-11,0.9-15.6c-0.6-2.2-1.5-4.5-2.7-7c-1.2-2.6-2.7-5-4.5-7.1c-1.9-2.2-4.1-3.9-6.6-5.2c-2.7-1.4-5.9-1.7-9.5-1
		c-2.8,0.5-4.7,1.1-6.1,1.8c-0.5,0.2-1.8,0.8-5.2,1.4c-1.7,0.3-2.6,0.3-3,0.2c0.9-2.7,1.4-5.6,1.4-8.5c0-3.9-0.4-7-1.2-9.4
		c-1.1-3.6-3.1-6.9-6-9.9c-3.3-3.4-7.9-4.5-13.7-3.4c-3.3,0.6-6.3,2.6-9,6.1c-1.2,1.5-2.4,3.2-3.4,5c-1.1,1.4-2.1,2.9-3,4.4
		c-1.1,1.4-2.1,2.9-3,4.4c-1.1,1.4-2.1,2.9-3,4.4c-1.1,1.4-2.1,2.9-3,4.4c-2.3,3-4.3,6.4-6,10.2c-1.7,4-3,8-3.7,12.1
		c-0.8,4.4-0.7,7.8,0.2,10.3c1.1,3.1,2.1,5,3.4,5.9c0.7,0.5,1.8,1.2,3.3,2.2c-0.7,2.1-1.6,4.8-2.7,8.4c-1.5,4.6-3.1,10-4.8,15.9
		c-0.9,3.1-1.8,6.2-2.7,9.4c-0.6,0.8-1.2,1.6-1.9,2.3c-5.1,6.3-10.6,11.9-16.3,16.8c-5.5,4.6-11.1,7.5-16.6,8.5
		c-2.6,0.5-5.2,0.6-7.9,0.4c-2.5-0.2-4.9-1-7-2.2c-2.2-1.2-4.2-3.1-6-5.5c-0.7-0.9-1.3-1.9-1.8-3c3-3,6.2-6.3,9.5-9.9
		c3.5-3.7,6.7-7.9,9.6-12.3c0.2-0.2,0.3-0.5,0.4-0.7c0.9-1.2,1.8-2.5,2.6-3.7c0.2-0.2,0.3-0.5,0.4-0.7c0.9-1.2,1.8-2.5,2.6-3.7
		c0.2-0.2,0.3-0.5,0.4-0.7c0.9-1.2,1.8-2.5,2.6-3.7c0.2-0.2,0.3-0.5,0.4-0.7c0.9-1.2,1.8-2.5,2.6-3.7c0.2-0.2,0.3-0.5,0.4-0.7
		c0.9-1.2,1.8-2.5,2.6-3.7c2.9-4.4,5.3-9.3,7.1-14.5c1.8-5.3,2.4-10.9,1.9-16.7c-0.7-5.6-3.1-10-7.3-13.1
		c-4.2-3.2-10.2-4.1-17.6-2.7c-7.5,1.4-14.6,5.1-21.1,11c-5.2,4.7-9.7,10.2-13.6,16.2c-1.1,1.4-2.1,2.9-3,4.4
		c-1.1,1.4-2.1,2.9-3,4.4c-1.1,1.4-2.1,2.9-3,4.4c-1.1,1.4-2.1,2.9-3,4.4c-2,2.7-3.9,5.6-5.6,8.7c-4.4,7.8-7.8,16.1-10.1,24.9
		c-2,7.5-2.9,14.5-2.7,21c-1.5,2.9-3.1,5.9-4.8,8.9c-0.1,0.1-0.2,0.2-0.3,0.4c-4.1,4.5-8.2,7.2-12.4,8c-2.7,0.5-3.3,0-3.3,0
		c-0.4-0.3-1-1.2-1.7-3.4c-0.5-2.6-0.3-5.6,0.6-9.1c1.1-4.2,1.2-8.8,0.4-13.8c-0.6-4.1-2.3-7.4-5.1-9.7c-1-0.9-2.1-1.7-3.3-2.4
		c0.3-0.4,0.5-0.8,0.8-1.2c0.1-0.1,0.1-0.3,0.2-0.4c1-1.3,1.9-2.6,2.8-4.1c0.1-0.1,0.1-0.3,0.2-0.4c1-1.3,1.9-2.6,2.8-4.1
		c0.1-0.1,0.1-0.3,0.2-0.4c1-1.3,1.9-2.6,2.8-4.1c2.2-3.5,4-7.3,5.2-11.2c1.3-4.1,1.6-8.3,1-12.7c-0.9-5.5-3.1-10.2-6.7-13.8
		c-3.8-3.9-9.1-5.2-15.6-4c-5.1,0.9-10.8,4-17.6,9.2c-6.2,5-11.6,11-15.9,17.8c-0.1,0.1-0.1,0.2-0.2,0.3c-1,1.3-1.9,2.7-2.8,4.1
		c-0.1,0.1-0.1,0.2-0.2,0.3c-0.3,0.4-0.6,0.9-1,1.3c0.3-2.2,0.5-4.3,0.9-6.5c1-6.7,2-13.7,3.1-20.9c1.1-7.1,2.2-14.9,3.2-23.1
		c1.1-8.2,1.9-17.3,2.6-27.1c0.5-7.7,0.7-13.7,0.5-18c-0.2-4.8-1.2-8.1-2.9-10c-1.7-2-4.2-2.9-7.1-2.6c-2.2,0.2-4.9,0.8-8.1,1.8
		c-2.7,0.9-5,1.8-6.9,2.7c-2,0.8-3.8,1.7-5.4,2.8c-1.7,1.2-3,2.4-3.9,3.7l-0.8,1.2l0.3,0.6c-1,0.8-1.9,1.7-2.5,2.6l-0.8,1.2l0.3,0.6
		c-1,0.8-1.9,1.7-2.5,2.6l-0.8,1.2l0.3,0.6c-1,0.8-1.9,1.7-2.5,2.6l-0.8,1.2l0.3,0.6c-1,0.8-1.9,1.7-2.5,2.6l-0.8,1.2l0.3,0.6
		c-1,0.8-1.9,1.7-2.5,2.6l-0.8,1.2l0.7,1.3c0.7,1.4,1.4,3.7,1.9,6.8c0.6,3.3,1,6.8,1.3,10.1c0.3,4.3,0.6,8.7,0.9,13.2
		c0.1,4.2,0.1,10.1,0,17.5c-0.1,7.5-0.4,15.9-0.7,25.1c-0.4,9.3-0.8,19.1-1.3,29.3c-0.3,7.3-0.7,14.6-1.1,21.7
		c-1.7,3.2-3.8,6.9-6.3,11.1c-0.2,0.3-0.3,0.6-0.5,0.8c-4.5,5.7-9.3,11-14.2,15.7c-5.4,5.1-10.7,8.2-15.7,9.1
		c-2.8,0.5-5.8,0.7-8.9,0.4c-3-0.2-5.9-1.1-8.7-2.5c-2.7-1.4-5.2-3.6-7.5-6.6c-2.2-3-3.8-7.2-4.7-12.5c-1.7-9.5-1.6-18.3,0.2-26
		c1-4.2,2.2-8.1,3.7-11.7c3.9-3.4,5.4-3.8,5.6-3.8c0.4-0.1,1.3-0.2,1.6,0.1c0.2,0.2,0.4,0.4,0.5,0.7c-0.6,0.7-1.1,1.5-1.6,2.5
		l-0.1,0.4c0,0.1,0,0.2-0.1,0.3c-1.1,0.9-2.1,2.2-2.8,3.8l-0.1,0.4c0,0.1,0,0.2-0.1,0.3c-1.1,0.9-2.1,2.2-2.8,3.8l-0.1,0.4
		c-0.3,1.1-0.4,2.7-0.2,5.2c0.2,2.3,0.6,4.7,1.4,6.9c0.8,2.5,2.1,4.6,3.9,6.3c2.1,2,4.8,2.8,7.9,2.2c3.3-0.6,6.2-2,8.6-4.1
		c2.2-1.9,4-4.2,5.4-6.8c1.2-1.3,2.2-2.8,3-4.4c1.2-1.3,2.2-2.8,3-4.4c1.2-1.3,2.2-2.8,3-4.4c1.2-1.3,2.2-2.8,3-4.4
		c1.3-1.5,2.5-3.2,3.4-5.2c1.4-2.9,2.4-6.1,2.9-9.6c0.5-3.5,0.4-7-0.2-10.3c-1.2-7.3-4.5-12.7-9.8-16.2c-5.3-3.4-11.2-4.6-17.5-3.4
		c-10.6,2-19.4,6.5-26.2,13.5c-3.6,3.8-6.8,7.8-9.5,12.1c-1.1,1.4-2.1,2.9-3,4.4c-1.1,1.4-2.1,2.9-3,4.4c-1.1,1.4-2.1,2.9-3,4.4
		c-1.1,1.4-2.1,2.9-3,4.4c-3.6,4.8-6.5,10-8.8,15.5c-3.5,8.4-5.8,17.1-6.7,25.7c-0.8,7.3-0.9,13.5-0.2,18.7c-1.5,2.8-3,5.6-4.6,8.4
		c-0.3,0.6-0.6,1.1-1,1.7c-2,1.9-3.2,2.4-3.6,2.5c-1.5,0.3-2.7,0.2-3.5-0.2c-0.9-0.5-1.7-1.3-2.3-2.4c-0.7-1.3-1.3-2.7-1.7-4.3
		c-0.4-1.6-0.7-3.2-0.8-4.6l0.1-15.4c0-1.3,0-2.8,0.1-4.4c0.2-8.3,0.4-15.1,0.5-20.3c0.1-5.3,0.1-9.4,0.1-12.5
		c0-3.2-0.2-5.4-0.4-6.7c-0.3-1.6-0.7-2.5-1.2-3.2l-0.5-0.7l-0.8-0.2c-0.8-0.2-1.8-0.2-3.3,0.1c-1,0.2-2.3,0.5-4.1,1
		c-0.4,0.1-0.8,0.2-1.2,0.4c1.3-4.5,1.2-8.1-0.1-11c-1.7-3.8-4.3-6.5-7.8-8c-3.7-1.5-8.2-2.2-13.5-2.2l-0.2,0
		c-4.7,0.5-9.9,2.9-15.9,7.5c-5.8,4.4-11.4,10.4-16.7,17.9c-0.8,1.1-1.6,2.3-2.3,3.5c-0.2,0.3-0.5,0.6-0.7,0.9
		c-0.8,1.1-1.6,2.3-2.3,3.5c-0.2,0.3-0.5,0.6-0.7,0.9c-0.8,1.1-1.6,2.3-2.3,3.5c-0.2,0.3-0.5,0.6-0.7,0.9c-0.8,1.1-1.6,2.3-2.3,3.5
		c-0.2,0.3-0.5,0.6-0.7,0.9c-0.8,1.1-1.6,2.3-2.3,3.5c-0.2,0.3-0.5,0.6-0.7,0.9c-5.3,7.5-9.9,16.2-13.6,26
		c-3.3,8.5-5.3,17.7-6.1,27.2c0,0.1-0.1,0.1-0.1,0.2c-1.4,2.6-2.9,5.3-4.5,8c-2.2,2.5-4.3,4.8-6.5,6.7c-2.8,2.5-5.6,4-8.1,4.5
		c-4.6,0.8-5.5,0.1-5.5,0c-0.9-1-1.7-2.4-2.4-4.1c-0.9-2.9-0.6-6.5,0.9-10.8c1.6-4.7,3.3-9,5.1-12.8c3-6.3,5.5-12.2,7.5-17.4
		c2.1-5.7,2.4-11,0.9-15.6c-0.6-2.2-1.5-4.5-2.7-7c-1.2-2.6-2.7-5-4.5-7.1c-1.9-2.2-4.1-3.9-6.6-5.2c-2.7-1.4-5.9-1.7-9.5-1
		c-2.8,0.5-4.7,1.1-6.1,1.8c-0.5,0.2-1.8,0.8-5.2,1.4c-1.7,0.3-2.6,0.3-3,0.2c0.9-2.7,1.4-5.6,1.4-8.5c0-3.9-0.4-7-1.2-9.4
		c-1.1-3.6-3.1-6.9-6-9.9c-3.3-3.4-7.9-4.5-13.7-3.4c-3.3,0.6-6.3,2.6-9,6.1c-1.2,1.5-2.4,3.2-3.4,5c-1.1,1.4-2.1,2.9-3,4.4
		c-1.1,1.4-2.1,2.9-3,4.4c-1.1,1.4-2.1,2.9-3,4.4c-1.1,1.4-2.1,2.9-3,4.4c-2.3,3-4.3,6.4-5.9,10.1c-1.7,4-3,8-3.7,12.1
		c-0.8,4.4-0.7,7.8,0.2,10.3c1.1,3.1,2.1,5,3.4,5.9c0.7,0.5,1.8,1.2,3.3,2.2c-0.7,2.1-1.6,4.8-2.7,8.4c-1.5,4.7-3.1,10-4.8,15.9
		c-1.7,5.9-3.5,12.1-5.3,18.6l-5.1,18.2c-1.6,5.6-2.9,10.4-4.1,14.3l-2.2,7.7c-0.8,2.9-0.8,5.2,0.1,7.1c1.2,2.6,3.2,3.4,4.6,3.7
		c1.9,0.3,3.8-0.1,5.8-1.4c1.7-1.1,3.1-2.9,4.2-5.3c1.2-1.1,2.2-2.6,3-4.4c1.2-1.1,2.2-2.6,3-4.4c1.2-1.1,2.2-2.6,3-4.4
		c1.2-1.1,2.2-2.6,3-4.4c1.3-1.1,2.3-2.7,3.2-4.7c0.3-0.6,1-2.1,2.9-7.3l5.6-14.5c2.2-5.7,4.5-11.8,7-18.4
		c2.4-6.4,4.7-12.5,6.9-18.3c1,0,2-0.1,3.1-0.3c1.8-0.3,3-0.6,3.8-0.9c0.7-0.2,1.2-0.3,1.6-0.4c0.6-0.1,1.2-0.3,1.8-0.5
		c0.1,0,0.5-0.2,1.8-0.4c0.9-0.2,1.2,0.1,1.4,0.4c0.7,0.8,1.1,1.7,1.3,2.8c0.4,2,0.1,4.8-1,8.3c-1.1,3.8-2.8,8.6-4.8,14.1l-0.1,0.2
		c-0.7,2.6-1.6,5.3-2.6,8c-1,2.8-2,5.6-2.8,8.4c-0.9,2.8-1.6,5.6-2.1,8.1c-0.6,2.8-0.7,5.3-0.5,7.7c0.4,2.9,1.3,5.9,2.8,9
		c1.5,3.2,3.6,5.9,6.2,8.3c2.6,2.4,5.8,4.2,9.4,5.5c3.8,1.3,8.2,1.5,13.3,0.6c4.8-0.9,9.6-3.3,14.3-7c4.5-3.6,8.9-8,13-13.1
		c3-3.7,5.9-7.6,8.6-11.8c1-1.4,2-2.9,3-4.4c1.6,4.5,3.6,8.3,5.9,11.1c2.9,3.5,6.2,6,9.8,7.2c3.6,1.3,6.9,1.6,9.8,1.1l0.1,0l0.1,0
		c5.5-1.4,10.8-3.6,16-6.6c4.4-2.7,9-6.5,13.6-11.3c2.1-2.3,4.1-4.9,5.9-7.9c0.9-1.2,1.8-2.5,2.6-3.8c0.5,1.4,1,2.8,1.5,3.9
		c1.5,3.2,2.9,5.6,4.2,7.5c1.7,2.4,3.7,4.1,5.9,5.2l0.2,0.1c2.1,0.9,4.4,1.3,7,1.4c2.4,0,5-0.3,7.5-1c2.5-0.7,5-1.6,7.3-2.8
		c2.3-1.2,4.4-2.6,6.2-4.1c2.3-2.2,4.9-5.6,7.9-10.2c1-1.3,2-2.8,3-4.4c1-1.3,2-2.8,3-4.4c1-1.3,2-2.8,3-4.4
		c0.4-0.6,0.8-1.2,1.3-1.8c2.2,4.2,5,8,8.4,11.3c4.2,4.2,9.5,7.3,15.6,9.3c6.2,2,13.5,2.3,21.6,0.7c6-1.1,11.9-3.6,17.5-7.4
		c5.5-3.7,10.7-8.1,15.6-13.1c4.8-5,9.4-10.4,13.5-16.2c1.7-2.4,3.3-4.7,4.8-7c0.5-0.8,1.1-1.6,1.6-2.3c-0.6,7.5-1.2,13.4-1.7,17.8
		c-0.5,3.6-0.5,6.4,0,8.5c0.6,2.3,1.6,4,3.1,5c1.5,1,3.1,1.3,5,1.1c2.4-0.3,5-0.6,7.8-1.6c0.9-0.3,1.9-0.8,3-1.2
		c1.3-0.5,2.5-1.2,3.6-2.1l1-0.7l3-4.4l0,0v0l3-4.4l0,0v0l3-4.4l0,0v0l3-4.4l0,0v0l3-4.4l0.3-20.9c1.6,0.5,3.2,0.7,4.8,0.4
		c3.5-0.6,6.3-2,8.5-4c1.1-1,2-2.1,2.9-3.2c0.3,0.5,0.6,0.9,0.9,1.4c0.7,1.3,1,2.8,0.7,4.7c-0.2,1.9-0.4,3.6-0.7,5.1
		c-0.3,1.6-0.6,3.2-0.9,4.7c-0.3,1.6-0.5,3.4-0.6,5.2c-0.1,2,0.1,4.3,0.5,6.6c0.9,5.5,3.3,10.3,7.2,14.3c4.2,4.2,9.8,5.6,16.9,4.3
		c6.6-1.2,12.9-4.5,18.7-9.8c5.6-5.1,10.9-11.2,15.7-18.2c0.5-0.8,1.1-1.6,1.6-2.4c0.5-0.7,1-1.4,1.5-2.1c0.5-0.8,1.1-1.6,1.6-2.4
		c0.5-0.7,1-1.4,1.5-2.1c0.5-0.8,1.1-1.6,1.6-2.4c0.2-0.3,0.5-0.7,0.7-1c0.3,0.6,0.6,1.1,0.9,1.7c3.6,5.9,7.8,10.6,12.5,13.9
		c4.7,3.3,9.8,5.5,15,6.6c5.2,1,9.9,1.2,14.1,0.4c7.8-1.4,15.5-4.8,23-9.9c7.1-4.8,13.9-10.7,20.2-17.6l-1.2,4.2
		c-0.8,2.9-0.8,5.2,0.1,7.1c1.2,2.6,3.2,3.4,4.6,3.7c1.9,0.3,3.8-0.1,5.8-1.4c0.7-0.4,1.3-1,1.9-1.6l0,0l0.1-0.2
		c0.6-0.6,1.1-1.4,1.5-2.2l1.5-2.2c0.6-0.7,1.1-1.4,1.6-2.3l1.5-2.2c0.5-0.6,1-1.3,1.4-2l1.8-2.6c0.4-0.5,0.8-1,1.1-1.6l2.1-3
		c0.3-0.4,0.6-0.8,0.9-1.2l2.3-3.3c0.3-0.3,0.5-0.7,0.7-1l0.2-0.2l0,0c0.4-0.6,0.7-1.3,1-2c0.3-0.6,1-2.1,2.9-7.3l5.6-14.5
		c2.2-5.7,4.5-11.8,7-18.4c2.4-6.4,4.7-12.5,6.9-18.3c1,0,2.1-0.1,3.2-0.3c1.8-0.3,3-0.6,3.8-0.9c0.7-0.2,1.2-0.3,1.6-0.4
		c0.6-0.1,1.2-0.3,1.8-0.5c0.1,0,0.5-0.2,1.8-0.4c0.9-0.2,1.2,0.1,1.4,0.4c0.7,0.8,1.1,1.7,1.3,2.8c0.4,2,0.1,4.8-1,8.3
		c-1.1,3.8-2.7,8.6-4.8,14.2c-0.7,2.6-1.6,5.3-2.6,8c-1,2.8-2,5.6-2.8,8.4c-0.9,2.8-1.6,5.6-2.1,8.1c-0.6,2.8-0.7,5.3-0.5,7.7
		c0.4,2.9,1.3,5.9,2.8,9c1.5,3.2,3.6,5.9,6.2,8.3c2.6,2.4,5.8,4.2,9.4,5.5c3.8,1.3,8.2,1.5,13.3,0.6c4.8-0.9,9.7-3.3,14.3-7
		c4.5-3.6,8.9-8,13-13.1c3-3.7,5.9-7.6,8.6-11.8c1-1.5,2.1-2.9,3-4.4c1-1.5,2.1-2.9,3-4.4c1-1.5,2.1-2.9,3-4.4c1-1.5,2-2.9,3-4.4
		c2.1-2.9,4.1-5.9,6-9.1c3.5-5.8,6.7-11.5,9.4-16.8c2.7-5.4,5.1-10.3,6.9-14.6c1.9-4.4,3.1-7.5,3.9-9.4
		C1096.5,420.5,1096.7,417.8,1095.9,415.7z M569.3,527.1c0,4.4-0.2,9.1-0.6,14c-0.3,4.9-0.6,9.2-0.8,12.8l0,0.1c0,0,0,0.3-0.2,0.8
		c-0.4,0.4-0.9,0.8-1.3,1.1c-2,1.5-4.1,2.6-6.2,3c-1.7,0.4-3.5,0-5.2-1.1c-0.2-0.1-1.2-1-2.4-4.9c-1-3.1-1.6-6.9-1.8-11.3
		c-0.2-4.4-0.1-9.4,0.5-14.6c0.6-5.2,1.7-10.3,3.5-15.1c1-2.8,2-5.3,2.9-7.7c0,0,0.1,0,0.1,0c0.2,0.3,0.4,0.7,0.7,1.4
		c0.2,0.5,0.5,1.6,0.6,3.6c0.1,1.6-0.3,3.8-1.1,6.6l-1.5,5.1l5-2.2c1.3-0.6,2.5-1.1,3.8-1.5c1.6-0.5,2.9-1.1,3.8-1.6
		c0.1,0,0.1-0.1,0.2-0.1c0,0.2,0,0.4,0,0.7C569.3,519,569.3,522.7,569.3,527.1z M788.8,472.8c-1.2,0.2-2.7,0.7-4.4,1.4
		c-1.8,0.7-3.4,1.8-5,3.1c-1.6,1.4-2.9,3.1-3.9,5.2c0,0,0,0.1,0,0.1c-1.2,1.2-2.2,2.7-3,4.3c0,0,0,0.1,0,0.1c-1.2,1.2-2.2,2.7-3,4.3
		c0,0,0,0.1,0,0.1c-0.2,0.2-0.3,0.3-0.5,0.5c0-1.3,0.1-2.5,0.1-3.8c1.8-2.9,3.9-6.4,6.4-10.5c0.2-0.3,0.5-0.6,0.7-0.8
		c1.8-2,3.6-3.7,5.6-5.2c1.7-1.3,3.5-2.1,5.2-2.3c0.8-0.1,2.1-0.1,3.9,1.8c0.3,0.3,0.7,0.7,1,1.2
		C790.3,472.6,789.4,472.7,788.8,472.8z M888.2,461.6c0.2-4.9,0.8-9.5,1.7-13.7c0.5-2.4,1.2-4.6,1.8-6.8c0,0,0,0,0.1,0
		c1.2-0.2,2,0,2.7,0.7c0.5,0.5,1.4,1.8,1.7,5.4c0.2,2-0.3,4.5-1.3,7.4c-1.7,1.8-3.4,3.6-5.1,5.3
		C889.3,460.5,888.8,461.1,888.2,461.6z"/>
	<g>
		<g>
			<path class="st4" d="M247.7,330.9c-0.1-3.9-0.2-7.9-0.2-11.9c1.1-1.4,2.1-2.8,3.1-4.3c0.6-0.9,1.3-1.8,1.9-2.7
				c0.6-0.9,1.3-1.8,1.9-2.7c0.6-0.9,1.3-1.8,1.9-2.7c0.6-0.9,1.3-1.8,1.9-2.7c0.6-0.9,1.3-1.8,1.9-2.7c0.6-0.9,1.3-1.8,1.9-2.7
				c0.6-0.9,1.3-1.8,1.9-2.7c0.6-0.9,1.3-1.8,1.9-2.7c0.6-0.9,1.3-1.8,1.9-2.7c0.6-0.9,1.3-1.8,1.9-2.7c1.3-1.7,2.5-3.5,3.7-5.4l0,0
				c3.6-5.9,6.3-12.6,8.2-19.9c1.9-7.3,2.2-15.4,1-23.9c-1.7-11.7-4.9-19.4-9.7-23.7c-4.9-4.3-10.6-5.9-16.9-4.7c0,0,0,0,0,0
				c-6.2,1.3-11.5,3.7-15.7,7c-3.4,2.6-6.2,5.8-8.6,9.5c-0.7,0.9-1.3,1.8-1.9,2.7c-0.7,0.9-1.3,1.8-1.9,2.7
				c-0.7,0.9-1.3,1.8-1.9,2.7c-0.7,0.9-1.3,1.8-1.9,2.7c-0.7,0.9-1.3,1.8-1.9,2.7c-0.7,0.9-1.3,1.8-1.9,2.7
				c-0.7,0.9-1.3,1.8-1.9,2.7c-0.7,0.9-1.3,1.8-1.9,2.7c-0.7,0.9-1.3,1.8-1.9,2.7c-0.7,0.9-1.3,1.8-1.9,2.7
				c-1.4,1.8-2.6,3.7-3.7,5.8c-2.6,4.9-4.5,10.8-5.9,17.4c-1.3,6.5-2.3,13.8-2.8,21.7c-0.1,1.7-0.2,3.4-0.3,5.1
				c-0.5,0.3-1.3,1.1-1.5,2.5c-0.1,0.1-0.2,0.1-0.4,0.2c-0.5,0.3-1.3,1.1-1.5,2.5c-0.1,0.1-0.2,0.1-0.4,0.2
				c-0.5,0.3-1.3,1.1-1.5,2.5c-0.1,0.1-0.2,0.1-0.4,0.2c-0.5,0.3-1.3,1.1-1.5,2.5c-0.1,0.1-0.2,0.1-0.4,0.2
				c-0.3,0.2-0.7,0.6-1.1,1.1c-1.1-5.4-2.4-11.2-3.9-17.3c-1.9-7.7-3.8-15.2-5.7-22.3c-1.9-7.1-3.8-13.7-5.6-19.5
				c-1.7-5.7-3-10.1-3.8-13.2c-1.5-5.4-4-8.8-7.4-10.2c-3.5-1.4-8.1-0.4-14.2,3.1c-1.3,0.7-2.6,1.5-3.7,2.4c-1,0.7-2.1,1.6-3.4,2.7
				c-1.3,1.1-2.6,2.2-3.7,3.4l-0.7,0.7l0,0.9c-0.4,0.4-0.8,0.8-1.2,1.2l-0.7,0.7l0,0.9c-0.4,0.4-0.8,0.8-1.2,1.2l-0.7,0.7l0,0.9
				c-0.4,0.4-0.8,0.8-1.2,1.2l-0.7,0.7l0,0.9c-0.4,0.4-0.8,0.8-1.2,1.2l-0.7,0.7l0,0.9c-0.4,0.4-0.8,0.8-1.2,1.2l-0.7,0.7l0,0.9
				c-0.4,0.4-0.8,0.8-1.2,1.2l-0.7,0.7l0,0.9c-0.4,0.4-0.8,0.8-1.2,1.2l-0.7,0.7l0,0.9c-0.4,0.4-0.8,0.8-1.2,1.2l-0.7,0.7l0,0.9
				c-0.4,0.4-0.8,0.8-1.2,1.2l-0.7,0.7l0,0.9c-0.4,0.4-0.8,0.8-1.2,1.2l-0.7,0.7l0,0.9c-0.4,0.4-0.8,0.8-1.2,1.2l-0.7,0.7l-2.8,67.6
				c-0.3,8.7-0.7,16.4-1.1,22.8c-0.3,5.1-0.6,11.2-1,18.2c-0.4,7.1-0.8,14.5-1.3,22.4c-0.5,7.9-1,16-1.5,24.2
				c-0.5,8.3-0.8,16.4-1,24c-0.2,7.6-0.2,14.7-0.2,21.1c0,6.4,0.4,11.9,1,16.1c0.9,6.7,2.3,11.5,4.1,14.9c1.9,3.5,3.9,5.9,6.2,7.4
				c2.4,1.6,4.8,2.3,7.4,2.2c2.1-0.1,3.9-0.3,5.5-0.6c1.4-0.3,3-0.8,5-1.5c1.4-0.6,3.1-1.4,5.3-2.5c2.3-1.1,4.9-2.7,7.8-4.7l1.8-1.3
				l-0.6-1c0.2-0.2,0.4-0.3,0.7-0.5l1.8-1.3l-0.6-1c0.2-0.2,0.4-0.3,0.7-0.5l1.8-1.3l-0.6-1c0.2-0.2,0.4-0.3,0.7-0.5l1.8-1.3l-0.6-1
				c0.2-0.2,0.4-0.3,0.7-0.5l1.8-1.3l-0.6-1c0.2-0.2,0.4-0.3,0.7-0.5l1.8-1.3l-0.6-1c0.2-0.2,0.4-0.3,0.7-0.5l1.8-1.3l-0.6-1
				c0.2-0.2,0.4-0.3,0.7-0.5l1.8-1.3l-0.6-1c0.2-0.2,0.4-0.3,0.7-0.5l1.8-1.3l-0.6-1c0.2-0.2,0.4-0.3,0.7-0.5l1.8-1.3l-0.6-1
				c0.2-0.2,0.4-0.3,0.7-0.5l1.8-1.3l-0.6-1c0.2-0.2,0.4-0.3,0.7-0.5l1.8-1.3l-1-1.9c-1.9-3.4-3.5-7.5-4.9-12.1
				c-1.4-4.8-2.6-9.5-3.7-13.9c-1.2-5.1-2.2-10.4-3.1-15.7c-0.7-4.7-1.3-10.8-1.6-17.9c-0.2-4.7-0.4-9.7-0.5-14.9
				c0.9,4.1,1.9,8.1,2.9,12.2c2.2,8.9,4.6,17.9,7.1,26.5c2.5,8.6,5.3,16.7,8.4,23.9c3,6.7,5.8,12.9,8.4,18.4
				c2.7,5.7,5.5,10.5,8.4,14.3c3.1,4,6.3,6.2,9.6,6.7c3.3,0.5,6.8-0.4,10.7-2.8c1.3-0.8,2.5-1.9,3.7-3.1c1.1-1,2.1-2.3,3-3.8
				c0.1-0.2,0.2-0.3,0.3-0.5c0.6-0.7,1.1-1.4,1.6-2.2c0.1-0.2,0.2-0.3,0.3-0.5c0.6-0.7,1.1-1.4,1.6-2.2c0.1-0.2,0.2-0.3,0.3-0.5
				c0.6-0.7,1.1-1.4,1.6-2.2c0.1-0.2,0.2-0.3,0.3-0.5c0.6-0.7,1.1-1.4,1.6-2.2c0.1-0.2,0.2-0.3,0.3-0.5c0.6-0.7,1.1-1.4,1.6-2.2
				c0.1-0.2,0.2-0.3,0.3-0.5c0.6-0.7,1.1-1.4,1.6-2.2c0.1-0.2,0.2-0.3,0.3-0.5c0.6-0.7,1.1-1.4,1.6-2.2c0.1-0.2,0.2-0.3,0.3-0.5
				c0.6-0.7,1.1-1.4,1.6-2.2c0.1-0.2,0.2-0.3,0.3-0.5c0.6-0.7,1.1-1.4,1.6-2.2c0.1-0.2,0.2-0.3,0.3-0.5c0.6-0.7,1.1-1.4,1.6-2.2
				c0.1-0.2,0.2-0.3,0.3-0.5c0.6-0.7,1.1-1.4,1.6-2.2c1-1.5,1.7-3.3,2.2-5.3l0.1-0.4c0.5-7.8,1-15.2,1.4-22.3
				c0.5-7.1,0.8-13.5,1-18.8c0.2-6.3,0.5-12.2,0.7-17.6c0.2-5.7,0.3-12.1,0.3-19.2c0-7.2-0.1-14.8-0.3-22.7L247.7,330.9z M200,354.5
				c-0.1-0.4-0.2-0.8-0.3-1.1c-1.1-4.4-2.2-8.7-3.1-12.8c0.9,0.2,1.9,0.4,2.9,0.5C199.7,345.7,199.9,350.2,200,354.5z"/>
			<path class="st4" d="M1080.2,193.6L1080.2,193.6c-1.2-0.5-3.2-0.7-5.8,1.2c-1.2,0.9-2.3,2.2-3.4,4.1c-0.7,0.7-1.3,1.6-1.9,2.7
				c-0.7,0.7-1.3,1.6-1.9,2.7c-0.7,0.7-1.3,1.6-1.9,2.7c-0.7,0.7-1.3,1.6-1.9,2.7c-0.7,0.7-1.3,1.6-1.9,2.7
				c-0.7,0.7-1.3,1.6-1.9,2.7c-0.7,0.7-1.3,1.6-1.9,2.7c-0.7,0.7-1.3,1.6-1.9,2.7c-0.7,0.7-1.3,1.6-1.9,2.7
				c-0.7,0.7-1.3,1.6-1.9,2.7c-1.1,1.2-2,2.8-3,4.9c-1.6,3.8-4.1,9-7.4,15.3c-1.3,2.6-2.8,5.2-4.2,7.8c-3.4,3.3-5.7,4.4-7.2,4.6
				c-2.4,0.4-2.8-0.4-3.1-1.5c-0.7-2.4-0.9-5.5-0.6-9.1c0.8-6.3,1.4-12.1,1.8-17.3c0.4-5.1,0.6-9.6,0.8-13.5l0.7-11.9
				c0.5-6.1,0.2-11.6-1.1-16.5c-1.2-4.9-3.1-9-5.4-12.4c-2.4-3.4-5.4-6-8.8-7.6c-3.5-1.6-7.3-2.1-11.2-1.4
				c-4.4,0.8-8.6,2.5-12.4,5.1c-3.7,2.5-7.2,5.4-10.3,8.8c-2.5,2.7-4.8,5.7-6.8,8.8c-0.5,0.6-0.9,1.2-1.4,1.9
				c0.1-1.2,0.3-2.5,0.4-3.6c0.3-2.2,0.6-3.9,0.8-5.2l0.4-1.8l-1.6-0.9c-1.5-0.8-3.1-1.3-4.9-1.6c-1.6-0.2-3.1-0.3-4.5-0.2
				c-1.6,0.1-3.1,0.3-4.6,0.6l-0.3,0.1c-1.7,0.5-3.3,1.2-4.8,2.1c-1.4,0.7-2.8,1.5-4.1,2.4c-1.4,1-2.7,2.2-3.9,3.6l-0.5,0.6l0,0.6
				c-0.5,0.5-0.9,1-1.4,1.5l-0.5,0.6l0,0.6c-0.5,0.5-0.9,1-1.4,1.5l-0.5,0.6l0,0.6c-0.5,0.5-0.9,1-1.4,1.5l-0.5,0.6l0,0.6
				c-0.5,0.5-0.9,1-1.4,1.5l-0.5,0.6l0,0.6c-0.5,0.5-0.9,1-1.4,1.5l-0.5,0.6l0,0.6c-0.5,0.5-0.9,1-1.4,1.5l-0.5,0.6l0,0.6
				c-0.5,0.5-0.9,1-1.4,1.5l-0.5,0.6l0,0.6c-0.5,0.5-0.9,1-1.4,1.5l-0.5,0.6l0,0.6c-0.5,0.5-0.9,1-1.4,1.5l-0.5,0.6l0,0.6
				c-0.5,0.5-0.9,1-1.4,1.5l-0.5,0.6l0,0.6c-0.5,0.5-0.9,1-1.4,1.5l-0.5,0.6l-0.1,0.8c-0.1,1.7-0.2,3.4-0.3,5
				c-1.2,1-2.4,1.9-3.6,2.8c-2.7,2.1-5.3,4-7.9,5.7c0-0.4-0.1-0.7-0.1-1.1c-0.2-2.1-0.5-3.9-0.8-5.3c-1.4-7.1-3.8-13-7.3-17.6
				c-3.4-4.6-7.2-8.2-11.3-10.9c-4.1-2.7-8.2-4.5-12.2-5.5c-3.9-1-7.1-1.3-9.7-1.1c-0.4-0.1-0.8-0.1-1.1-0.2c-0.8-0.1-1.6-0.1-2.4,0
				c-3.4,0.6-6.8,1.7-10.2,3.2c-3.4,1.5-6.5,3.3-9.3,5.4c-2.8,2.2-5.3,4.7-7.2,7.6c-0.2,0.2-0.3,0.5-0.4,0.7c-0.5,0.7-1,1.3-1.5,2
				c-0.2,0.2-0.3,0.5-0.4,0.7c-0.5,0.7-1,1.3-1.5,2c-0.2,0.2-0.3,0.5-0.4,0.7c-0.5,0.7-1,1.3-1.5,2c-0.2,0.2-0.3,0.5-0.4,0.7
				c-0.5,0.7-1,1.3-1.5,2c-0.2,0.2-0.3,0.5-0.4,0.7c-0.5,0.7-1,1.3-1.5,2c-0.2,0.2-0.3,0.5-0.4,0.7c-0.5,0.7-1,1.3-1.5,2
				c-0.2,0.2-0.3,0.5-0.4,0.7c-0.5,0.7-1,1.3-1.5,2c-0.2,0.2-0.3,0.5-0.4,0.7c-0.5,0.7-1,1.3-1.5,2c-0.2,0.2-0.3,0.5-0.4,0.7
				c-0.5,0.7-1,1.3-1.5,2c-0.2,0.2-0.3,0.5-0.4,0.7c-0.5,0.7-1,1.3-1.5,2c-0.2,0.2-0.3,0.5-0.4,0.7c-0.5,0.7-1,1.3-1.5,2
				c-1.9,2.8-3.1,5.9-3.7,9.2c-2.3,4.1-4.2,8.4-5.6,13c-1.4,4.7-2.5,9.3-3.1,13.9c-0.6,4.5-0.9,8.9-1,13.1c0,1.1,0,2.2,0.1,3.4
				c-1.1,1.2-2.2,2.4-3.3,3.6c-4.3,4.4-8,6.9-11,7.5c-0.7,0.1-1.4,0-2.1-0.3c-0.5-0.2-1.4-0.9-2.8-2.9l-0.1-0.1
				c-0.6-0.8-1.5-2.5-1.8-6.1c-0.3-3.2-0.3-6.8-0.1-10.5c0.2-3.8,0.6-7.8,1.1-11.9c0.5-4.1,0.9-7.9,1.2-11.2
				c0.3-3.2,0.8-7.5,1.6-12.7c0.8-5.4,1.6-10.6,2.2-15.4c0.7-5,1.2-9.4,1.6-13c0.6-5.9,0.6-7-0.8-8l-0.4-0.2l-0.4-0.1
				c-0.8-0.2-1.8-0.2-5.1,0.6c-2.3,0.5-4.8,1.3-7.5,2.2c-2.6,1-5.2,2-7.6,3.2c-2.8,1.4-4.7,2.9-5.6,4.6c-0.2,0.3-0.3,0.7-0.5,1
				c-0.6,0.6-1.1,1.1-1.4,1.7c-0.2,0.3-0.3,0.7-0.5,1c-0.6,0.6-1.1,1.1-1.4,1.7c-0.2,0.3-0.3,0.7-0.5,1c-0.6,0.6-1.1,1.1-1.4,1.7
				c-0.2,0.3-0.3,0.7-0.5,1c-0.6,0.6-1.1,1.1-1.4,1.7c-0.2,0.3-0.3,0.7-0.5,1c-0.6,0.6-1.1,1.1-1.4,1.7c-0.2,0.3-0.3,0.7-0.5,1
				c-0.6,0.6-1.1,1.1-1.4,1.7c-0.2,0.3-0.3,0.7-0.5,1c-0.6,0.6-1.1,1.1-1.4,1.7c-0.2,0.3-0.3,0.7-0.5,1c-0.6,0.6-1.1,1.1-1.4,1.7
				c-0.2,0.3-0.3,0.7-0.5,1c-0.6,0.6-1.1,1.1-1.4,1.7c-0.2,0.3-0.3,0.7-0.5,1c-0.6,0.6-1.1,1.1-1.4,1.7c-0.2,0.3-0.3,0.7-0.5,1
				c-0.6,0.6-1.1,1.1-1.4,1.7c-2.3,4.3-3.9,10.2-4.8,18.1c-0.8,7.6-1.2,15.6-1.1,23.8c0,1,0,1.9,0.1,2.9l0,0.1
				c-1.5,2.8-3.2,6-5.1,9.3c-0.8,1.3-1.5,2.7-2.3,4c-1.9,2.1-3.7,3.9-5.6,5.5c-2.9,2.5-5.5,3.8-7.7,3.9l-0.2,0
				c-2.9,0.4-5.3,0-7.5-1.2c-1.9-1.1-3.8-3.4-5.7-6.6c-1.9-3.2-3-8.5-3.4-15.5c2.6-11.2,4.8-21.8,6.7-31.4
				c1.9-9.9,3.6-18.7,4.8-26.3c0.8-4.6,1.4-9,2.1-13.3c0.8-0.1,1.7-0.2,2.4-0.3c4.3-0.4,8.1-0.8,11.2-1c3.1-0.2,5.7-0.3,7.9-0.2
				c2.4,0.1,4.5,0.1,6.4-0.1c2.5,0,4.7-0.9,6.3-2.7c0.8-0.9,1.5-1.8,2-2.8c0.8-0.8,1.4-1.8,1.9-2.7c0.8-0.8,1.4-1.8,1.9-2.7
				c0.8-0.8,1.4-1.8,1.9-2.7c0.4-0.5,0.8-0.9,1.1-1.4c0.7,0.1,1.5,0.1,2.4-0.1c0.6-0.1,1.2-0.3,1.8-0.5c2.2-0.8,4.2-2.1,6.1-3.7
				c1.6-1.4,3-3.2,4.2-5.2c0.7-0.8,1.3-1.8,1.9-2.7c0.7-0.8,1.3-1.7,1.9-2.7c0.7-0.8,1.3-1.7,1.9-2.7c0.7-0.8,1.3-1.7,1.9-2.7
				c0.7-0.8,1.3-1.7,1.9-2.7c0.7-0.8,1.3-1.7,1.9-2.7c0.7-0.8,1.3-1.7,1.9-2.7c0.7-0.8,1.3-1.7,1.9-2.7c0.7-0.8,1.3-1.7,1.9-2.7
				c0.7-0.8,1.3-1.7,1.9-2.7c0.9-1.1,1.7-2.3,2.4-3.6c1.3-2.4,2.1-4.8,2.3-7.1c0.2-2.1,0-4.4-0.5-6.9c-0.6-2.5-1.5-4.7-2.7-6.6
				c-1.3-2-2.9-3.6-4.8-4.7c-2.2-1.2-4.7-1.4-7.3-0.4c-2.3,0.9-4.6,2.6-7.2,5.4c-1.3,1.4-2.4,2.9-3.3,4.5c-0.7,0.9-1.3,1.8-1.9,2.7
				c-0.7,0.9-1.3,1.8-1.9,2.7c-0.7,0.9-1.3,1.8-1.9,2.7c-0.7,0.9-1.3,1.8-1.9,2.7c-0.7,0.9-1.3,1.8-1.9,2.7
				c-0.7,0.9-1.3,1.8-1.9,2.7c-0.7,0.9-1.3,1.8-1.9,2.7c-0.7,0.9-1.3,1.7-1.9,2.7c-1-0.1-2.1-0.1-3.3-0.2c-4.4-0.2-9.6-0.1-15.5,0.1
				c-5.2,0.3-11,0.9-17.4,2c-0.1-7.9-0.5-14.6-1.4-19.8c-1.4-8.3-2.7-10.6-3.8-11.7L714,141c-1.6-1.3-3.7-1.8-6.4-1.7
				c-2.2,0.1-4.5,0.5-6.8,1.3c-2.2,0.7-4.3,1.6-6.2,2.6c-2.3,1.2-3.6,2.6-4.2,4.1c-0.1,0.1-0.1,0.3-0.2,0.4
				c-0.8,0.7-1.4,1.5-1.7,2.3c-0.1,0.1-0.1,0.3-0.2,0.4c-0.8,0.7-1.4,1.5-1.7,2.3c-0.1,0.1-0.1,0.3-0.2,0.4
				c-0.8,0.7-1.4,1.5-1.7,2.3c-0.1,0.1-0.1,0.3-0.2,0.4c-0.8,0.7-1.4,1.5-1.7,2.3c-0.1,0.1-0.1,0.3-0.2,0.4
				c-0.8,0.7-1.4,1.5-1.7,2.3c-0.1,0.1-0.1,0.3-0.2,0.4c-0.8,0.7-1.4,1.5-1.7,2.3c-0.1,0.1-0.1,0.3-0.2,0.4
				c-0.8,0.7-1.4,1.5-1.7,2.3c-0.1,0.1-0.1,0.3-0.2,0.4c-0.8,0.7-1.4,1.5-1.7,2.3c-0.1,0.1-0.1,0.3-0.2,0.4
				c-0.8,0.7-1.4,1.5-1.7,2.3c-0.1,0.1-0.1,0.3-0.2,0.4c-0.8,0.7-1.4,1.5-1.7,2.3c-0.1,0.1-0.1,0.3-0.2,0.4
				c-0.8,0.7-1.4,1.5-1.7,2.3c-1.2,2.5-2.2,6.3-3.1,11.5c-4,0.9-7.8,1.5-11.4,1.9c-4.1,0.5-7.6,0.8-11,1.1l-0.3,0
				c-1.6,0.3-3.1,1.2-4.7,2.8c-1,1-1.8,2.2-2.5,3.4c-0.7,0.8-1.4,1.8-1.9,2.7c-0.7,0.8-1.4,1.8-1.9,2.7c-0.7,0.8-1.4,1.8-1.9,2.7
				c-0.7,0.8-1.4,1.8-1.9,2.7c-0.7,0.8-1.4,1.8-1.9,2.7c-0.7,0.8-1.4,1.8-1.9,2.7c-0.7,0.8-1.4,1.8-1.9,2.7
				c-0.7,0.8-1.4,1.8-1.9,2.7c-0.7,0.9-1.4,1.8-1.9,2.7c-0.7,0.8-1.4,1.8-1.9,2.7c-1,1.2-1.9,2.6-2.5,4c-0.8,1.8-1.1,3.6-1,5.3
				c0.1,2.4,1.7,4.2,4.3,4.9c1.1,0.3,2.3,0.6,3.7,0.8c-2.6,0.9-5.2,2-7.6,3.2c-2.8,1.4-4.7,2.9-5.6,4.6c-0.2,0.3-0.3,0.7-0.5,1
				c-0.6,0.6-1.1,1.1-1.4,1.7c-0.2,0.3-0.3,0.7-0.5,1c-0.6,0.6-1.1,1.1-1.4,1.7c-0.2,0.3-0.3,0.7-0.5,1c-0.6,0.6-1.1,1.1-1.4,1.7
				c-0.2,0.3-0.3,0.7-0.5,1c-0.6,0.6-1.1,1.1-1.4,1.7c-0.2,0.3-0.3,0.7-0.5,1c-0.6,0.6-1.1,1.1-1.4,1.7c-0.2,0.3-0.3,0.7-0.5,1
				c-0.6,0.6-1.1,1.1-1.4,1.7c-0.2,0.3-0.3,0.7-0.5,1c-0.6,0.6-1.1,1.1-1.4,1.7c-0.2,0.3-0.3,0.7-0.5,1c-0.6,0.6-1.1,1.1-1.4,1.7
				c-0.2,0.3-0.3,0.7-0.5,1c-0.6,0.6-1.1,1.1-1.4,1.7c-0.2,0.3-0.3,0.7-0.5,1c-0.6,0.6-1.1,1.1-1.4,1.7c-0.2,0.3-0.3,0.7-0.5,1
				c-0.6,0.6-1.1,1.1-1.4,1.7c-2.3,4.3-3.9,10.2-4.8,18.1c-0.8,7.6-1.2,15.6-1.1,23.8c0,0.8,0,1.6,0.1,2.4l0,0.5l-0.8,1.8
				c-1.6,3.5-3.6,7.5-6,11.9c-0.7,1.3-1.4,2.6-2.1,3.9c-1.1,1.1-2.2,2.2-3.2,3.1c-2.8,2.5-5.6,4-8.1,4.5c-4.6,0.8-5.5,0.1-5.5,0
				c-0.9-1-1.7-2.4-2.4-4.1c-0.9-2.9-0.6-6.5,0.9-10.8c1.6-4.7,3.3-9,5.1-12.8c3-6.3,5.5-12.2,7.5-17.4c2.1-5.7,2.4-11,0.9-15.6
				c-0.6-2.2-1.5-4.5-2.7-7c-1.2-2.6-2.7-5-4.5-7.1c-1.9-2.2-4.1-3.9-6.6-5.2c-2.7-1.4-5.9-1.7-9.5-1c-2.8,0.5-4.7,1.1-6.1,1.8
				c-0.5,0.2-1.8,0.8-5.2,1.4c-1.7,0.3-2.6,0.3-3,0.2c0.9-2.7,1.4-5.6,1.4-8.5c0-3.9-0.4-7-1.2-9.4c-1.1-3.6-3.1-6.9-6-9.9
				c-3.3-3.4-7.9-4.5-13.7-3.4c-3.3,0.6-6.3,2.6-9,6.1c-0.9,1.2-1.8,2.4-2.6,3.7c-0.7,0.9-1.3,1.8-1.9,2.7c-0.7,0.9-1.3,1.8-1.9,2.7
				c-0.7,0.9-1.3,1.8-1.9,2.7c-0.7,0.9-1.3,1.8-1.9,2.7c-0.7,0.9-1.3,1.8-1.9,2.7c-0.7,0.9-1.3,1.8-1.9,2.7
				c-0.7,0.9-1.3,1.8-1.9,2.7c-0.7,0.9-1.3,1.8-1.9,2.7c-0.7,0.9-1.3,1.8-1.9,2.7c-0.7,0.9-1.3,1.8-1.9,2.7
				c-2.2,2.9-4.1,6.2-5.6,9.7c-1.7,4-3,8-3.7,12.1c-0.8,4.4-0.7,7.8,0.2,10.3c1.1,3.1,2.1,5,3.4,5.9c0.7,0.5,1.8,1.2,3.3,2.2
				c-0.7,2.1-1.6,4.8-2.7,8.4c-1.5,4.7-3.1,10-4.8,15.9c-0.9,3.2-1.9,6.5-2.8,9.9c-0.5,0.8-1,1.7-1.4,2.6c-0.7,1.3-1.5,2.7-2.3,4
				c-1.9,2.1-3.7,3.9-5.6,5.5c-2.9,2.5-5.5,3.8-7.7,3.9l-0.2,0c-2.9,0.4-5.3,0-7.5-1.2c-1.9-1.1-3.8-3.4-5.7-6.6
				c-1.9-3.2-3-8.5-3.4-15.5c2.6-11.1,4.8-21.7,6.7-31.4c1.9-9.8,3.6-18.7,4.8-26.3c0.8-4.6,1.4-9,2.1-13.3c0.8-0.1,1.7-0.2,2.4-0.3
				c4.3-0.4,8.1-0.8,11.2-1c3.1-0.2,5.7-0.3,7.9-0.2c2.4,0.1,4.5,0.1,6.4-0.1c2.5,0,4.7-0.9,6.3-2.7c0.8-0.9,1.5-1.8,2-2.8
				c0.8-0.8,1.4-1.8,1.9-2.7c0.8-0.8,1.4-1.8,1.9-2.7c0.8-0.8,1.4-1.8,1.9-2.7c0.8-0.8,1.4-1.8,1.9-2.7c0.8-0.8,1.4-1.8,1.9-2.7
				c0.8-0.8,1.4-1.8,1.9-2.7c0.8-0.8,1.4-1.8,1.9-2.7c0.8-0.8,1.4-1.8,1.9-2.7c0.8-0.8,1.4-1.8,1.9-2.7c0.8-0.8,1.4-1.8,1.9-2.7
				c1.5-1.6,2.4-3.4,2.9-5.4c0.4-1.9,0.4-3.8-0.1-5.5c-0.6-2.4-2.3-3.8-4.7-4.1c-1.2-0.1-3.2-0.4-5.7-0.9c-2.8-0.5-6.4-0.9-10.7-1.1
				c-4.4-0.2-9.6-0.1-15.5,0.1c-5.2,0.3-11,0.9-17.4,2c-0.1-7.9-0.5-14.6-1.4-19.8c-1.4-8.3-2.7-10.6-3.8-11.7l-0.3-0.2
				c-1.6-1.3-3.7-1.8-6.4-1.7c-2.2,0.1-4.5,0.5-6.8,1.3c-2.2,0.7-4.3,1.6-6.2,2.6c-2.3,1.2-3.6,2.6-4.2,4.1
				c-0.1,0.1-0.1,0.3-0.2,0.4c-0.8,0.7-1.4,1.5-1.7,2.3c-0.1,0.1-0.1,0.3-0.2,0.4c-0.8,0.7-1.4,1.5-1.7,2.3
				c-0.1,0.1-0.1,0.3-0.2,0.4c-0.8,0.7-1.4,1.5-1.7,2.3c-0.1,0.1-0.1,0.3-0.2,0.4c-0.8,0.7-1.4,1.5-1.7,2.3
				c-0.1,0.1-0.1,0.3-0.2,0.4c-0.8,0.7-1.4,1.5-1.7,2.3c-0.1,0.1-0.1,0.3-0.2,0.4c-0.8,0.7-1.4,1.5-1.7,2.3
				c-0.1,0.1-0.1,0.3-0.2,0.4c-0.8,0.7-1.4,1.5-1.7,2.3c-0.1,0.1-0.1,0.3-0.2,0.4c-0.8,0.7-1.4,1.5-1.7,2.3
				c-0.1,0.1-0.1,0.3-0.2,0.4c-0.8,0.7-1.4,1.5-1.7,2.3c-0.1,0.1-0.1,0.3-0.2,0.4c-0.8,0.7-1.4,1.5-1.7,2.3
				c-0.1,0.1-0.1,0.3-0.2,0.4c-0.8,0.7-1.4,1.5-1.7,2.3c-1.2,2.5-2.2,6.3-3.1,11.5c-4,0.9-7.8,1.5-11.4,1.9c-4.1,0.5-7.7,0.8-11,1.1
				l-0.3,0c-1.6,0.3-3.1,1.2-4.7,2.8c-1,1-1.8,2.2-2.5,3.4c-0.7,0.8-1.4,1.8-1.9,2.7c-0.7,0.8-1.4,1.8-1.9,2.7
				c-0.7,0.8-1.4,1.8-1.9,2.7c-0.7,0.8-1.4,1.8-1.9,2.7c-0.7,0.8-1.4,1.8-1.9,2.7c-0.7,0.8-1.4,1.8-1.9,2.7
				c-0.7,0.8-1.4,1.8-1.9,2.7c-0.7,0.8-1.4,1.8-1.9,2.7c-0.7,0.8-1.4,1.8-1.9,2.7c-0.7,0.8-1.4,1.8-1.9,2.7c-1,1.2-1.9,2.6-2.5,4
				c-0.8,1.8-1.1,3.6-1,5.3c0.1,2.4,1.7,4.2,4.3,4.9c2,0.5,4.5,1,7.7,1.3c-0.9,0.2-1.8,0.4-2.9,0.7c-3.9,0.9-6.7,2.1-8.4,3.7
				c-0.8,0.7-1.5,1.7-2.2,3c-0.7,0.7-1.3,1.6-1.9,2.7c-0.7,0.7-1.3,1.6-1.9,2.7c-0.7,0.7-1.3,1.6-1.9,2.7c-0.7,0.7-1.3,1.6-1.9,2.7
				c-0.7,0.7-1.3,1.6-1.9,2.7c-0.7,0.7-1.3,1.6-1.9,2.7c-0.7,0.7-1.3,1.6-1.9,2.7c-0.7,0.7-1.3,1.6-1.9,2.7
				c-0.7,0.7-1.3,1.6-1.9,2.7c-0.7,0.7-1.3,1.6-1.9,2.7c-1.7,1.7-3.1,4.7-4.3,9.5c-0.7,2.4-1.4,5.5-2.2,9.5c-0.8,4-1.4,8.5-1.9,13.4
				c-0.4,4.9-0.6,10.2-0.6,15.7c0.1,5.2,0.6,10.6,1.6,15.9c-4.1,0.2-7-0.8-8.9-3c-2.7-3.1-4.4-8.5-5-15.9c-0.3-3.4-0.2-8,0.2-13.9
				c0.4-5.2,1.3-12.1,2.4-20.5c1.2-8.4,3-19.1,5.5-31.8l0.5-2.4l-2.5-0.4c-3.4-0.6-7.3,0.3-10.8,1.3L300,302
				c-1.9,0.7-3.7,1.4-5.4,2.1l-0.2,0.1c-4,2.1-7.1,4.9-9.2,8.5c-0.7,0.9-1.3,1.8-1.9,2.7c-0.7,0.9-1.3,1.8-1.9,2.7
				c-0.7,0.9-1.3,1.8-1.9,2.7c-0.7,0.9-1.3,1.8-1.9,2.7c-0.7,0.9-1.3,1.8-1.9,2.7c-0.7,0.9-1.3,1.8-1.9,2.7
				c-0.7,0.9-1.3,1.8-1.9,2.7c-0.7,0.9-1.3,1.8-1.9,2.7c-0.7,0.9-1.3,1.8-1.9,2.7c-0.7,0.9-1.3,1.8-1.9,2.7
				c-1.3,1.5-2.3,3.2-3.1,5.1c-1.9,4.4-3.2,9.4-3.9,14.9c-0.1,0.7-0.4,2.3-0.8,7c-0.3,3.7-0.6,8.2-0.9,13.3
				c-0.3,5.2-0.3,10.9-0.1,16.9c0.2,6,0.9,11.8,1.9,17.1c0.6,3.2,1.8,6.5,3.6,10.1c1.8,3.6,4.4,6.9,7.6,9.7c3.3,2.8,7.4,5,12.5,6.3
				c5,1.4,11.2,1.4,18.3,0.1c7.2-1.3,13.4-4.4,18.6-9.1c2.7-2.5,5.1-5.3,7.2-8.6c0.7-0.9,1.3-1.8,1.9-2.7c0.5-0.6,0.9-1.2,1.3-1.8
				c2.4,3.7,5,6.6,7.6,8.7c4,3.2,8.8,4.2,14.3,3.2c5.8-1.1,11.6-4.5,17.1-10.1c4.6-4.7,9.1-10.2,13.3-16.4c0.6-0.9,1.3-1.8,1.9-2.7
				c0.6-0.9,1.3-1.8,1.9-2.7c0.6-0.9,1.3-1.8,1.9-2.7c0.6-0.9,1.3-1.8,1.9-2.7c0.6-0.9,1.3-1.8,1.9-2.7c0.6-0.9,1.3-1.8,1.9-2.7
				c0.3-0.4,0.6-0.9,0.9-1.3c0.1,0.6,0.1,1.2,0.2,1.6c0.3,3.6,1.3,7.4,3.1,11.4c1.8,4,4.2,7.6,7.3,10.6c3.1,3.1,7.1,5.6,11.8,7.2
				c4.7,1.7,10.3,1.9,16.6,0.8c4.7-0.9,9.7-4.2,15.3-10c1.4-1.5,2.9-3.1,4.3-4.8c0,1.1,0.3,2.1,0.7,3c1.2,2.6,3.2,3.4,4.6,3.7
				c1.9,0.3,3.8-0.1,5.8-1.4c1.5-0.9,2.7-2.4,3.7-4.3c0.7-0.8,1.3-1.7,1.9-2.7c0.7-0.8,1.3-1.7,1.9-2.7c0.7-0.8,1.3-1.7,1.9-2.7
				c0.7-0.8,1.3-1.7,1.9-2.7c0.7-0.8,1.3-1.7,1.9-2.7c0.7-0.8,1.3-1.7,1.9-2.7c0.7-0.8,1.3-1.7,1.9-2.7c0.7-0.8,1.3-1.7,1.9-2.7
				c0.7-0.8,1.3-1.7,1.9-2.7c0.7-0.8,1.3-1.7,1.9-2.7c1-1.1,1.9-2.4,2.5-4.1c0.3-0.6,1-2.1,2.9-7.3l5.6-14.5
				c2.2-5.7,4.5-11.8,7-18.4c1.4-3.8,2.8-7.4,4.1-11c0.1,0,0.2,0,0.3,0c1.8-0.3,3-0.6,3.8-0.9c0.7-0.2,1.2-0.3,1.6-0.4
				c0.6-0.1,1.2-0.3,1.8-0.5c0.1,0,0.5-0.2,1.8-0.4c0.9-0.2,1.2,0.1,1.4,0.4c0.7,0.8,1.1,1.7,1.3,2.8c0.4,2,0.1,4.8-1,8.3
				c-1.1,3.8-2.8,8.6-4.8,14.1l-0.1,0.2c-0.7,2.6-1.6,5.3-2.6,8c-1,2.8-2,5.6-2.8,8.4c-0.9,2.8-1.6,5.6-2.1,8.1
				c-0.6,2.8-0.7,5.3-0.5,7.7c0.4,2.9,1.3,5.9,2.8,9c1.5,3.2,3.6,5.9,6.2,8.3c2.6,2.4,5.8,4.2,9.4,5.5c3.8,1.3,8.2,1.5,13.3,0.6
				c4.8-0.9,9.6-3.3,14.3-7c4.5-3.6,8.9-8,13-13.1c2.5-3,4.9-6.3,7.2-9.6c0.6-0.9,1.3-1.8,1.9-2.7c0.6-0.9,1.3-1.8,1.9-2.7
				c0.6-0.9,1.3-1.8,1.9-2.7c0.6-0.9,1.3-1.8,1.9-2.7c0.6-0.9,1.3-1.8,1.9-2.7c0.6-0.9,1.3-1.8,1.9-2.7c0.2-0.2,0.3-0.4,0.5-0.7
				c0.6,2.9,1.2,5.3,1.8,7.4c0.8,3.3,2.5,6.3,4.8,9c2.3,2.6,5,4.8,8,6.4c3,1.7,6.3,2.8,9.7,3.5c3.5,0.6,6.9,0.6,10.2-0.3
				c4.2-1,8.9-4.3,14.4-10.2c5.2-5.5,10.3-12,15.4-19.4c0-0.1,0.1-0.1,0.1-0.2c0.6-0.8,1.2-1.7,1.8-2.6c0-0.1,0.1-0.1,0.1-0.2
				c0.6-0.8,1.2-1.7,1.8-2.6c0-0.1,0.1-0.1,0.1-0.2c0.6-0.8,1.2-1.7,1.8-2.6c0-0.1,0.1-0.1,0.1-0.2c0.6-0.8,1.2-1.7,1.8-2.6
				c0-0.1,0.1-0.1,0.1-0.2c0.6-0.8,1.2-1.7,1.8-2.6c0-0.1,0.1-0.1,0.1-0.2c0.6-0.8,1.2-1.7,1.8-2.6c0-0.1,0.1-0.1,0.1-0.2
				c0.3-0.4,0.6-0.8,0.8-1.2c0.2,2.1,0.3,3.8,0.5,5c0.3,3.6,1.3,7.4,3.1,11.4c1.8,4,4.2,7.6,7.3,10.6c3.1,3.1,7.1,5.6,11.8,7.2
				c4.7,1.7,10.3,1.9,16.6,0.8c4.7-0.9,9.6-4.2,15.3-10c4.4-4.7,8.9-10.3,13.3-16.7c0.6-0.9,1.3-1.8,1.9-2.7
				c0.6-0.9,1.3-1.8,1.9-2.7c0.6-0.9,1.3-1.8,1.9-2.7c0.6-0.9,1.3-1.8,1.9-2.7c0.6-0.9,1.3-1.8,1.9-2.7c0.6-0.9,1.3-1.8,1.9-2.7
				c0.3-0.4,0.6-0.8,0.9-1.3c0.6,3.4,1.3,6.4,2.1,8.7c0.8,3.3,2.5,6.3,4.8,9c2.3,2.6,5,4.8,8,6.4c3,1.7,6.3,2.8,9.7,3.5
				c3.5,0.6,6.9,0.6,10.2-0.3c4.2-1,8.9-4.3,14.4-10.2c5.1-5.5,10.3-12,15.4-19.4c0-0.1,0.1-0.1,0.1-0.2c0.6-0.8,1.2-1.7,1.8-2.5
				c0-0.1,0.1-0.1,0.1-0.2c0.6-0.8,1.2-1.7,1.8-2.5c0-0.1,0.1-0.1,0.1-0.2c0.3-0.4,0.6-0.9,0.9-1.3c1.5,4.8,3.7,9.2,6.4,13.1
				c3.1,4.5,7.3,7.9,12.5,10.4c5.2,2.5,11.8,3,19.6,1.6c6.5-1.2,12.4-3.6,17.5-7.1c5-3.5,9.3-7.8,12.8-13c0.1-0.2,0.3-0.4,0.4-0.6
				c0.5-0.7,1-1.4,1.5-2.1c0.1-0.2,0.3-0.4,0.4-0.6c0.5-0.7,1-1.4,1.5-2.1c0.1-0.2,0.3-0.4,0.4-0.6c0.5-0.7,1-1.4,1.5-2.1
				c0.1-0.2,0.3-0.4,0.4-0.6c0.5-0.7,1-1.4,1.5-2.1c0.1-0.2,0.3-0.4,0.4-0.6c0.5-0.7,1-1.4,1.5-2.1c0.1-0.2,0.3-0.4,0.4-0.6
				c0.5-0.7,1-1.4,1.5-2.1c0.1-0.2,0.3-0.4,0.4-0.6c0.5-0.7,1-1.4,1.5-2.1c0.1-0.2,0.3-0.4,0.4-0.6c0.5-0.7,1-1.4,1.5-2.1
				c0.1-0.2,0.3-0.4,0.4-0.6c0.5-0.7,1-1.4,1.5-2.1c0.1-0.2,0.3-0.4,0.4-0.6c0.5-0.7,1-1.4,1.5-2.1c0.1-0.2,0.3-0.4,0.4-0.6
				c0.5-0.7,1-1.4,1.5-2.1c3.5-5.1,6.2-11,8.2-17.5c0.3-0.9,0.5-1.9,0.8-2.8c3.9-3.6,7.5-7.1,10.9-10.7c0.5-0.5,1-1,1.4-1.5
				c-0.1,3.5-0.2,6.8-0.2,9.8c-0.3,5.2-0.6,10.8-0.9,16.6c-0.3,5.8-0.7,11.3-1.1,16.4l-1,13.5c-0.3,4-0.4,6.4-0.4,7.4
				c-0.1,1.8,0.7,2.9,1.4,3.5c1.1,0.9,2.7,1.2,4.8,0.8c2.5-0.5,5.2-1.5,8.3-3.3c3-1.7,5.7-3.7,8.2-5.9c1.7-1.5,2.9-3,3.6-4.5
				c0.8-0.9,1.4-1.8,1.9-2.7c0.8-0.9,1.4-1.8,1.9-2.7c0.8-0.9,1.4-1.8,1.9-2.7c0.8-0.9,1.4-1.8,1.9-2.7c0.8-0.9,1.4-1.8,1.9-2.7
				c0.8-0.9,1.4-1.8,1.9-2.7c0.8-0.9,1.4-1.8,1.9-2.7c0.8-0.9,1.4-1.8,1.9-2.7c0.8-0.9,1.4-1.8,1.9-2.7c0.8-0.9,1.4-1.8,1.9-2.7
				c1.7-1.9,2.6-3.8,2.8-5.7l0-0.2c0.1-2.5,0.2-5.2,0.4-7.9c0.2-2.9,0.3-6.2,0.4-9.9c0.1-3.7,0.3-7.8,0.5-12.4
				c0.2-4.4,0.5-9.7,0.9-15.7c1.1-2.4,2.2-4.8,3.3-7.1c1.3-0.7,2.6-1.2,3.8-1.5c0.8-0.1,1.7-0.1,2.5,1.6c1.1,2.1,1.8,5,2.2,8.7
				c0.4,3.8,0.5,8.2,0.3,13.1c-0.2,5-0.5,10-0.9,14.9c-0.4,4.9-0.8,9.5-1.3,13.9c-0.5,4.3-0.7,7.8-0.8,10.4
				c-0.2,4.1,0.3,7.9,1.6,11.3c1.3,3.5,3.2,6.4,5.7,8.7c2.5,2.4,5.6,4.1,9.2,5.1c3.6,1,7.7,1.1,12.1,0.3c4.3-0.8,8.6-2.9,12.8-6.3
				c4-3.2,8-7.2,11.8-11.9c2.2-2.7,4.4-5.6,6.4-8.7c0.6-0.9,1.3-1.8,1.9-2.7c0.6-0.9,1.3-1.8,1.9-2.7c0.6-0.9,1.3-1.8,1.9-2.7
				c0.6-0.9,1.3-1.8,1.9-2.7c0.6-0.9,1.3-1.8,1.9-2.7c0.6-0.9,1.3-1.8,1.9-2.7c0.6-0.9,1.3-1.8,1.9-2.7c0.6-0.9,1.3-1.8,1.9-2.7
				c0.6-0.9,1.3-1.8,1.9-2.7c0.6-0.9,1.3-1.8,1.9-2.7c2.1-2.9,4.1-6,6-9.2c3.2-5.3,6.2-10.7,8.9-15.9c2.7-5.2,5-10.1,6.8-14.6
				c1.9-4.6,3.1-8.2,3.9-10.9c1-3.4,1.3-6.2,0.8-8.4C1083.4,197.7,1082.8,194.6,1080.2,193.6z M648.2,239.8c2.6-0.5,5.4-1.2,8.4-2.1
				l5.4-1.7c-0.4,9.4-0.7,19.2-0.8,29.2c-0.1,11.2-0.1,21.8-0.1,31.5l0,2.6c-0.6,0.7-1.1,1.5-1.6,2.4l-0.1,0.2
				c-1.5,3.5-4.1,8.2-7.5,14c-1.9,2.2-3.7,4.3-5.6,6.2c-4.3,4.4-8,6.9-11,7.5c-0.7,0.1-1.4,0-2.1-0.3c-0.5-0.2-1.4-0.9-2.8-2.9
				l-0.1-0.1c-0.6-0.8-1.5-2.5-1.8-6.1c-0.3-3.2-0.3-6.8-0.1-10.5c0.2-3.8,0.6-7.8,1.1-11.9c0.5-4.2,0.9-7.9,1.1-11.2
				c0.3-3.2,0.8-7.5,1.6-12.7c0.8-5.4,1.6-10.6,2.3-15.4c0.7-5,1.2-9.4,1.6-13c0.2-2,0.3-3.4,0.4-4.5
				C640.5,240.9,644.3,240.5,648.2,239.8z M380.6,289.5c2.6-0.5,5.4-1.2,8.4-2.1l5.4-1.7c-0.4,9.4-0.7,19.2-0.8,29.2
				c-0.1,11.2-0.1,21.8-0.1,31.5c0,1.4,0,2.8,0,4.1l-1.7,3.5c-1.6,3.2-3.5,7.1-5.7,11.4c-1.5,2.9-3.1,5.9-4.8,9
				c-2.1,2-4,3.1-5.7,3.4c-1,0.2-1.9,0.1-2.8-0.1c-0.7-0.2-1.5-0.9-2.3-1.9c-1-1.3-2-3.4-3.1-6.2c-1-2.8-2.2-6.5-3.5-11.1
				c0.5-1.2,1.1-2.4,1.8-3.8c0.8-1.8,1.6-4.1,2.2-6.8c0.6-2.6,1.2-5.7,1.7-9.4c0.5-3.6,0.9-8.1,1.2-13.1c0.6-6.4,0.6-12.5-0.2-18.3
				c-0.7-5.7-1.4-9.9-1.9-12.7c-0.2-0.9-0.8-2.7-2.9-3.8C370.6,290.8,375.6,290.4,380.6,289.5z"/>
			<path class="st4" d="M598.7,233.3c1.2,0.6,3,1.2,5.3,0.8c0.6-0.1,1.2-0.3,1.8-0.5c2.2-0.8,4.2-2.1,6.1-3.8c1.6-1.4,3-3.2,4.2-5.2
				c0.7-0.8,1.3-1.7,1.9-2.7c0.7-0.8,1.3-1.7,1.9-2.7c0.7-0.8,1.3-1.7,1.9-2.7c0.7-0.8,1.3-1.8,1.9-2.7c0.7-0.8,1.3-1.8,1.9-2.7
				c0.7-0.8,1.3-1.7,1.9-2.7c0.7-0.8,1.3-1.8,1.9-2.7c0.7-0.8,1.3-1.8,1.9-2.7c0.7-0.8,1.3-1.7,1.9-2.7c0.7-0.8,1.3-1.7,1.9-2.7
				c0.9-1.1,1.7-2.3,2.4-3.5c1.3-2.4,2.1-4.8,2.3-7.1c0.2-2.1,0-4.4-0.5-6.9c-0.6-2.5-1.5-4.7-2.7-6.6c-1.3-2-2.9-3.6-4.8-4.7
				c-2.2-1.2-4.7-1.4-7.3-0.4c-2.3,0.9-4.6,2.6-7.2,5.4c-1.3,1.4-2.4,2.9-3.4,4.5c-0.7,0.9-1.3,1.8-1.9,2.7
				c-0.7,0.9-1.3,1.8-1.9,2.7c-0.7,0.9-1.3,1.8-1.9,2.7c-0.7,0.9-1.3,1.8-1.9,2.7c-0.7,0.9-1.3,1.8-1.9,2.7
				c-0.7,0.9-1.3,1.8-1.9,2.7c-0.7,0.9-1.3,1.8-1.9,2.7c-0.7,0.9-1.3,1.8-1.9,2.7c-0.7,0.9-1.3,1.8-1.9,2.7
				c-0.7,0.9-1.3,1.8-1.9,2.7c-1.8,2.3-3.2,4.8-4.3,7.5c-1.4,3.6-1.6,7.3-0.7,11C590.8,227.8,593.8,230.9,598.7,233.3z"/>
		</g>
	</g>
	<path class="st4" d="M422.1,414.1c-0.1-2.6-0.6-4.7-1.6-6.4l-0.8-1.3l-1.5,0.1c-5.9,0.4-11.8,0.9-17.6,1.5
		c-5.8,0.6-11.1,1.2-15.8,1.7c-5.5,0.7-10.8,1.4-15.9,2.2c-0.8,0-1.7,0-2.7,0.1c-1.2,0.1-2.6,0.5-4.3,1.2c-1.3,0.2-2.6,0.4-3.9,0.6
		c-1.5,0.2-3,0.4-4.4,0.7c-6.6,1.2-13.5,2.8-20.5,4.6c-6.1,1.5-13.1,3.3-20.7,5.5c-7.6,2.1-15.5,4.7-23.5,7.6c-2,0.8-3.5,2-4.6,3.5
		c-0.6,0.8-1.1,1.8-1.5,2.8c-0.6,0.5-1.1,1.1-1.5,1.7c-0.6,0.8-1.1,1.8-1.5,2.8c-0.6,0.5-1.1,1.1-1.5,1.7c-0.6,0.8-1.1,1.8-1.5,2.8
		c-0.6,0.5-1.1,1.1-1.5,1.7c-0.6,0.8-1.1,1.8-1.5,2.8c-0.6,0.5-1.1,1.1-1.5,1.7c-0.6,0.8-1.1,1.8-1.5,2.8c-0.6,0.5-1.1,1.1-1.5,1.7
		c-0.9,1.4-1.7,2.9-2.2,4.7c-0.5,1.7-0.8,3.4-1,5.2c-0.1,1.8-0.2,3.3-0.1,4.7c0.1,1.5,0.3,3.1,0.6,4.6c0.3,1.8,1,3.4,2,4.8
		c1.1,1.6,2.6,2.7,4.3,3.1c1.8,0.5,4,0.1,6.6-1.3c2-0.9,4.7-2.1,8.1-3.6c3.4-1.5,7.3-3.2,11.6-5c4.3-1.8,9-3.6,13.9-5.4
		c3.8-1.4,7.7-2.8,11.7-4.1l-3.6,71.9c-0.8,17.7-1.5,33.4-2.1,47.1c-0.7,14.3-1.2,26-1.6,35.8c-0.4,10-0.8,18.8-1.1,26
		c-0.4,7.2-0.6,13.1-0.8,17.8c-0.6,11.2-0.9,18.1-0.9,20.6c-0.2,3.9,0.6,6.4,2.6,7.7c1.8,1.2,4.9,1.3,10,0.4
		c2.1-0.4,4.4-1.1,6.7-2.1c2-0.8,4.2-1.8,6.6-3.1c2.4-1.3,5-2.9,7.7-4.9l1.1-0.8l3-4.4l0,0v0l3-4.4l0,0v0l3-4.4l0,0v0l3-4.4l0,0v0
		l3-4.4l-0.1-1.3c-0.3-3.2-0.5-6.7-0.7-10.6c-0.2-3.9-0.4-8-0.6-12.2c-0.2-4.2-0.3-8.6-0.3-13c0-4.5-0.1-8.8-0.2-12.9
		c-0.1-9.9-0.2-19.9-0.3-30.1c-0.2-10.4,0-22.4,0.6-35.6c0.6-13.1,1.4-26.6,2.4-40.2c0.9-13.6,2-26.6,3.1-38.7
		c0.3-3.3,0.6-6.5,0.8-9.5c4-0.7,8.6-1.5,13.8-2.4c5.6-0.9,11.5-1.9,17.5-2.8l0.6-0.1l0.5-0.4c1.2-0.9,2.2-1.9,3-3
		c0.6-0.8,1.1-1.7,1.5-2.6c0.6-0.6,1.1-1.2,1.6-1.8c0.6-0.8,1.1-1.7,1.5-2.6c0.6-0.6,1.1-1.2,1.6-1.8c0.6-0.8,1.1-1.7,1.5-2.6
		c0.6-0.6,1.1-1.2,1.6-1.8c0.6-0.8,1.1-1.7,1.5-2.6c0.6-0.6,1.1-1.2,1.6-1.8c0.6-0.8,1.1-1.7,1.5-2.6c0.6-0.6,1.1-1.2,1.6-1.8
		c0.7-1,1.3-2.1,1.7-3.2c0.7-1.3,1-2.7,1-4.2C422.2,416.2,422.2,415.2,422.1,414.1z"/>
	<g>
		<path class="st5" d="M386.2,429.2c4.2-0.8,9.1-1.7,14.7-2.6c5.6-0.9,11.5-1.9,17.5-2.8l0.6-0.1l0.5-0.4c1.2-0.9,2.2-1.9,3-3
			c0.7-1,1.3-2.1,1.7-3.2c0.7-1.3,1-2.7,1-4.2c0-1.1-0.1-2.1-0.1-3.2c-0.1-2.6-0.6-4.7-1.6-6.4l-0.8-1.3l-1.5,0.1
			c-5.9,0.4-11.8,0.9-17.6,1.5c-5.8,0.6-11.1,1.2-15.8,1.7c-5.5,0.7-10.8,1.4-15.9,2.2c-0.8,0-1.7,0-2.7,0.1
			c-1.2,0.1-2.6,0.5-4.3,1.2c-1.3,0.2-2.6,0.4-3.9,0.6c-1.5,0.2-3,0.4-4.4,0.7c-6.6,1.2-13.5,2.8-20.5,4.6
			c-6.1,1.5-13.1,3.3-20.7,5.5c-7.6,2.1-15.5,4.7-23.5,7.6c-2,0.8-3.5,2-4.6,3.5c-0.9,1.4-1.7,2.9-2.2,4.7c-0.5,1.7-0.8,3.4-1,5.2
			c-0.1,1.8-0.2,3.3-0.1,4.7c0.1,1.5,0.3,3.1,0.6,4.6c0.3,1.8,1,3.4,2,4.8c1.1,1.6,2.6,2.7,4.3,3.1c1.8,0.5,4,0.1,6.6-1.3
			c2-0.9,4.7-2.1,8.1-3.6c3.4-1.5,7.3-3.2,11.6-5c4.3-1.8,9-3.6,13.9-5.4c3.8-1.4,7.7-2.8,11.7-4.1l-3.6,71.9
			c-0.8,17.7-1.5,33.4-2.1,47.1c-0.7,14.3-1.2,26-1.6,35.8c-0.4,10-0.8,18.8-1.1,26c-0.4,7.2-0.6,13.1-0.8,17.8
			c-0.6,11.2-0.9,18.1-0.9,20.6c-0.2,3.9,0.6,6.4,2.6,7.7c1.8,1.2,4.9,1.3,10,0.4c2.1-0.4,4.4-1.1,6.7-2.1c2-0.8,4.2-1.8,6.6-3.1
			c2.4-1.3,5-2.9,7.7-4.9l1.1-0.8l-0.1-1.3c-0.3-3.2-0.5-6.7-0.7-10.6c-0.2-3.9-0.4-8-0.6-12.2c-0.2-4.2-0.3-8.6-0.3-13
			c0-4.5-0.1-8.8-0.2-12.9c-0.1-9.9-0.2-19.9-0.3-30.1c-0.2-10.4,0-22.4,0.6-35.6c0.6-13.1,1.4-26.6,2.4-40.2
			c0.9-13.6,2-26.6,3.1-38.7c1-11.4,1.9-21.2,2.6-29.2L386.2,429.2z"/>
		<path class="st5" d="M1099,411.3c-1.1-2.8-2.9-3.9-4.3-4.3c-1.3-0.4-3.3-0.5-5.7,1c-1.8,1-3.1,2.6-3.9,4.6c-0.8,1.7-2,4.3-3.6,7.7
			c-1.6,3.5-3.6,7.5-6,11.9c-2.4,4.5-5.1,9.1-8,13.8c-2.9,4.7-5.9,9-9,13.1c-3,3.9-6.2,7.3-9.2,10c-2.8,2.5-5.6,4-8.1,4.5
			c-4.6,0.9-5.5,0.1-5.5,0c-0.9-1-1.7-2.4-2.4-4.1c-0.9-2.9-0.6-6.5,0.9-10.8c1.6-4.7,3.3-9,5.1-12.8c3-6.3,5.5-12.2,7.5-17.4
			c2.1-5.7,2.4-11,0.9-15.6c-0.6-2.2-1.5-4.5-2.7-7c-1.2-2.6-2.7-5-4.5-7.1c-1.9-2.2-4.1-3.9-6.6-5.2c-2.7-1.4-5.9-1.7-9.5-1
			c-2.8,0.5-4.7,1.1-6.1,1.8c-0.5,0.2-1.8,0.8-5.2,1.4c-1.7,0.3-2.6,0.3-3,0.2c0.9-2.7,1.4-5.6,1.4-8.5c0-3.9-0.4-7-1.2-9.4
			c-1.1-3.6-3.1-6.9-6-9.9c-3.3-3.4-7.9-4.5-13.7-3.4c-3.3,0.6-6.3,2.6-9,6.1c-2.5,3.1-4.6,6.7-6.4,10.7c-1.7,4-3,8-3.7,12.1
			c-0.8,4.4-0.7,7.8,0.2,10.3c1.1,3.1,2.1,5,3.4,5.9c0.7,0.5,1.8,1.2,3.3,2.2c-0.7,2.1-1.6,4.8-2.7,8.4c-1.5,4.6-3.1,10-4.8,15.9
			c-1,3.3-2,6.8-3,10.3c-0.8,1.4-1.7,2.7-2.6,4.2c-4.2,6.6-9,13.2-14.2,19.5c-5.1,6.3-10.6,11.9-16.3,16.8
			c-5.5,4.6-11.1,7.5-16.6,8.5c-2.6,0.5-5.2,0.6-7.9,0.4c-2.5-0.2-4.9-1-7-2.2c-2.2-1.2-4.2-3.1-6-5.5c-1.6-2.1-2.9-4.9-3.8-8.3
			c2.1-2.1,4.4-4.5,7.1-7.1c3.1-3,6.3-6.2,9.8-9.5c3.1-3.1,6.4-6.6,9.8-10.2c3.5-3.7,6.7-7.9,9.6-12.3c2.9-4.4,5.3-9.3,7.1-14.5
			c1.8-5.3,2.4-10.9,1.9-16.7c-0.7-5.6-3.1-10-7.3-13.1c-4.2-3.2-10.2-4.1-17.6-2.7c-7.5,1.4-14.6,5.1-21.1,11
			c-6.3,5.8-11.8,12.7-16.2,20.5c-4.4,7.8-7.8,16.1-10.1,24.9c-2,7.5-2.9,14.5-2.7,21c-2.6,5-5.4,10.1-8.5,15.3
			c-3.5,5.9-7.5,11.3-11.8,16.1c-4.1,4.5-8.2,7.2-12.4,8c-2.7,0.5-3.3,0-3.3,0c-0.4-0.3-1-1.2-1.7-3.4c-0.5-2.6-0.3-5.6,0.6-9.1
			c1.1-4.2,1.2-8.8,0.4-13.8c-0.6-4.1-2.3-7.4-5.1-9.7c-1.5-1.3-3.2-2.4-4.9-3.3c1.2-1.2,2.6-2.6,4.1-4.1c2.7-2.8,5.2-5.9,7.4-9.4
			c2.2-3.5,4-7.3,5.2-11.2c1.3-4.1,1.6-8.3,1-12.7c-0.9-5.5-3.1-10.2-6.7-13.8c-3.8-3.9-9.1-5.2-15.6-4c-5.1,0.9-10.8,4-17.6,9.2
			c-6.2,5-11.6,11-15.9,17.8c-1.6,2.4-3,4.8-4.3,7.1c0.3-2.5,0.6-5,1-7.5c1-6.7,2-13.7,3.1-20.9c1.1-7.1,2.2-14.9,3.2-23.1
			c1.1-8.2,1.9-17.3,2.6-27.1c0.5-7.7,0.7-13.7,0.5-18c-0.2-4.8-1.2-8.1-2.9-10c-1.7-2-4.2-2.9-7.1-2.6c-2.2,0.2-4.9,0.8-8.1,1.8
			c-2.7,0.9-5,1.8-6.9,2.7c-2,0.8-3.8,1.7-5.4,2.8c-1.7,1.2-3,2.4-3.9,3.7l-0.8,1.2l0.7,1.3c0.7,1.4,1.4,3.7,1.9,6.8
			c0.6,3.3,1,6.8,1.3,10.1c0.3,4.3,0.6,8.7,0.9,13.2c0.1,4.2,0.1,10.1,0,17.5c-0.1,7.5-0.4,15.9-0.7,25.1
			c-0.4,9.3-0.8,19.1-1.3,29.3c-0.3,7.3-0.7,14.6-1.1,21.7c-1.7,3.2-3.8,6.9-6.3,11.1c-4,6.8-8.6,13.7-13.7,20.5
			c-5.1,6.7-10.5,12.9-16.2,18.2c-5.4,5.1-10.7,8.2-15.7,9.1c-2.8,0.5-5.8,0.7-8.9,0.4c-3-0.2-5.9-1.1-8.7-2.5
			c-2.7-1.4-5.2-3.6-7.5-6.6c-2.2-3-3.8-7.2-4.7-12.5c-1.7-9.5-1.6-18.3,0.2-26c1.9-7.8,4.4-14.5,7.7-20c3.2-5.5,6.6-9.8,10.1-12.9
			c4.8-4.2,6.4-4.7,6.7-4.8c0.4-0.1,1.3-0.2,1.6,0.1c0.4,0.4,0.7,0.9,0.8,1.5c0.2,0.8,0.1,1.5-0.2,2.3c-0.3,0.7-0.7,1.3-1.2,1.7
			l-3.4,2.5c-1.3,1-2.4,2.3-3.2,4.1l-0.1,0.4c-0.3,1.1-0.4,2.7-0.2,5.2c0.2,2.3,0.6,4.7,1.4,6.9c0.8,2.5,2.1,4.6,3.9,6.3
			c2.1,2,4.8,2.8,7.9,2.2c3.3-0.6,6.2-2,8.6-4.1c2.4-2,4.3-4.6,5.8-7.5c1.4-2.9,2.4-6.1,2.9-9.6c0.5-3.5,0.4-7-0.2-10.3
			c-1.2-7.3-4.5-12.7-9.8-16.2c-5.3-3.4-11.2-4.6-17.5-3.4c-10.6,2-19.4,6.5-26.2,13.5c-6.6,6.9-11.7,14.6-15.3,23.1
			c-3.5,8.4-5.8,17.1-6.7,25.7c-0.8,7.3-0.9,13.5-0.2,18.7c-1.5,2.8-3,5.6-4.6,8.4c-2.6,4.6-5.2,9-7.7,12.9
			c-2.4,3.8-4.9,7.1-7.2,9.7c-2.8,3.1-4.3,3.6-4.9,3.7c-1.5,0.3-2.7,0.2-3.5-0.2c-0.9-0.5-1.7-1.3-2.3-2.4c-0.7-1.3-1.3-2.7-1.7-4.3
			c-0.4-1.6-0.7-3.2-0.8-4.6l0.1-15.4c0-1.3,0-2.8,0.1-4.4c0.2-8.3,0.4-15.1,0.5-20.3c0.1-5.3,0.1-9.4,0.1-12.5
			c0-3.2-0.2-5.4-0.4-6.7c-0.3-1.6-0.7-2.5-1.2-3.2l-0.5-0.7l-0.8-0.2c-0.8-0.2-1.8-0.2-3.3,0.1c-1,0.2-2.3,0.5-4.1,1
			c-0.4,0.1-0.8,0.2-1.2,0.4c1.3-4.5,1.2-8.1-0.1-11c-1.7-3.8-4.3-6.5-7.8-8c-3.7-1.5-8.2-2.2-13.5-2.2l-0.2,0
			c-4.7,0.5-9.9,2.9-15.9,7.5c-5.8,4.4-11.4,10.4-16.7,17.9c-5.3,7.5-9.9,16.2-13.6,26c-3.3,8.5-5.3,17.7-6.1,27.2
			c0,0.1-0.1,0.1-0.1,0.2c-2.4,4.5-5.1,9.1-8,13.8c-2.9,4.7-5.9,9-9,13.1c-3.1,3.9-6.2,7.3-9.2,10c-2.8,2.5-5.6,4-8.1,4.5
			c-4.6,0.8-5.5,0.1-5.5,0c-0.9-1-1.7-2.4-2.4-4.1c-0.9-2.9-0.6-6.5,0.9-10.8c1.6-4.7,3.3-9,5.1-12.8c3-6.3,5.5-12.2,7.5-17.4
			c2.1-5.7,2.4-11,0.9-15.6c-0.6-2.2-1.5-4.5-2.7-7c-1.2-2.6-2.7-5-4.5-7.1c-1.9-2.2-4.1-3.9-6.6-5.2c-2.7-1.4-5.9-1.7-9.5-1
			c-2.8,0.5-4.7,1.1-6.1,1.8c-0.5,0.2-1.8,0.8-5.2,1.4c-1.7,0.3-2.6,0.3-3,0.2c0.9-2.7,1.4-5.6,1.4-8.5c0-3.9-0.4-7-1.2-9.4
			c-1.1-3.6-3.1-6.9-6-9.9c-3.3-3.4-7.9-4.5-13.7-3.4c-3.3,0.6-6.3,2.6-9,6.1c-2.5,3.1-4.6,6.7-6.4,10.7c-1.7,4-3,8-3.7,12.1
			c-0.8,4.4-0.7,7.8,0.2,10.3c1.1,3.1,2.1,5,3.4,5.9c0.7,0.5,1.8,1.2,3.3,2.2c-0.7,2.1-1.6,4.8-2.7,8.4c-1.5,4.7-3.1,10-4.8,15.9
			c-1.7,5.9-3.5,12.1-5.3,18.6l-5.1,18.2c-1.6,5.6-2.9,10.4-4.1,14.3l-2.2,7.7c-0.8,2.9-0.8,5.2,0.1,7.1c1.2,2.6,3.2,3.4,4.6,3.7
			c1.9,0.3,3.8-0.1,5.8-1.4c1.8-1.2,3.3-3,4.3-5.6c0.3-0.6,1-2.1,2.9-7.3l5.6-14.5c2.2-5.7,4.5-11.8,7-18.4
			c2.5-6.6,4.8-12.8,7.1-18.8c2.2-6,4.2-11.2,5.9-15.6c1.2-3,2-5.3,2.6-6.9c0.8,0.1,1.7,0.3,2.5,0.5c2.1,0.5,4.5,0.5,7.1,0
			c1.8-0.3,3-0.6,3.8-0.9c0.7-0.2,1.2-0.3,1.6-0.4c0.6-0.1,1.2-0.3,1.8-0.5c0.1,0,0.5-0.2,1.8-0.4c0.9-0.2,1.2,0.1,1.4,0.4
			c0.7,0.8,1.1,1.7,1.3,2.8c0.4,2,0.1,4.8-1,8.3c-1.1,3.8-2.8,8.6-4.8,14.1l-0.1,0.2c-0.7,2.6-1.6,5.3-2.6,8c-1,2.8-2,5.6-2.8,8.4
			c-0.9,2.8-1.6,5.6-2.1,8.1c-0.6,2.8-0.7,5.3-0.5,7.7c0.4,2.9,1.3,5.9,2.8,9c1.5,3.2,3.6,5.9,6.2,8.3c2.6,2.4,5.8,4.2,9.4,5.5
			c3.8,1.3,8.2,1.5,13.3,0.6c4.8-0.9,9.6-3.3,14.3-7c4.5-3.6,8.9-8,13-13.1c4.1-5,8-10.5,11.5-16.4c0,0,0,0,0,0
			c1.6,4.6,3.6,8.4,6,11.3c2.9,3.5,6.2,6,9.8,7.2c3.6,1.3,6.9,1.6,9.8,1.1l0.1,0l0.1,0c5.5-1.4,10.8-3.6,16-6.6
			c4.4-2.7,9-6.5,13.6-11.3c3.1-3.3,5.9-7.4,8.4-12.2c0.5,1.7,1.1,3.2,1.7,4.5c1.5,3.2,2.9,5.6,4.2,7.5c1.7,2.4,3.7,4.1,5.9,5.2
			l0.2,0.1c2.1,0.9,4.4,1.3,7,1.4c2.4,0,5-0.3,7.5-1c2.5-0.7,5-1.6,7.3-2.8c2.3-1.2,4.4-2.6,6.2-4.1c2.5-2.4,5.3-6.1,8.6-11.3
			c3-4.7,6-9.8,9-15.3c2.3,4.7,5.4,9,9.1,12.6c4.2,4.2,9.5,7.3,15.6,9.3c6.2,2,13.5,2.3,21.6,0.7c6-1.1,11.9-3.6,17.5-7.4
			c5.5-3.7,10.7-8.1,15.6-13.1c4.8-5,9.4-10.4,13.5-16.2c2.3-3.2,4.5-6.3,6.5-9.4c-0.6,7.6-1.2,13.5-1.7,17.9
			c-0.5,3.6-0.5,6.4,0,8.5c0.6,2.3,1.6,4,3.1,5c1.5,1,3.1,1.3,5,1.1c2.4-0.3,5-0.6,7.8-1.6c0.9-0.3,1.9-0.8,3-1.2
			c1.3-0.5,2.5-1.2,3.6-2.1l1-0.7l0.3-21.6c0.1-6.6,0.2-12.5,0.3-17.7c0.1-5.6,0.3-11.2,0.5-16.4c2.2-3.6,4.9-8,8.1-13.3
			c3.4-5.5,6.5-10.3,9.3-14.3c1.4-1.8,3.1-3.8,4.9-5.9c1.8-2,3.6-3.7,5.6-5.2c1.7-1.3,3.5-2.1,5.2-2.3c0.8-0.1,2.1-0.1,3.9,1.8
			c1.4,1.3,3,3.7,0.9,8.5c-1.8,4.1-5.1,9.1-9.9,14.7c-1.6,0-3.2,0.1-4.6,0.2c-1.9,0.2-3,0.3-3.6,0.4c-1.2,0.2-2.7,0.7-4.4,1.4
			c-1.8,0.7-3.4,1.8-5,3.1c-1.6,1.4-2.9,3.1-3.9,5.2c-1.1,2.2-1.3,4.9-0.8,7.8c0.7,3.5,2.4,6.3,5,8.4c2.7,2.1,5.6,2.9,8.5,2.4
			c3.5-0.6,6.3-2,8.5-4c1.1-1,2-2.1,2.9-3.2c0.3,0.5,0.6,0.9,0.9,1.4c0.7,1.3,1,2.8,0.7,4.7c-0.2,1.9-0.4,3.6-0.7,5.1
			c-0.3,1.6-0.6,3.2-0.9,4.7c-0.3,1.6-0.5,3.4-0.6,5.2c-0.1,2,0.1,4.3,0.5,6.6c0.9,5.5,3.3,10.3,7.2,14.3c4.2,4.2,9.8,5.6,16.9,4.3
			c6.6-1.2,12.9-4.5,18.7-9.8c5.6-5.1,10.9-11.2,15.7-18.2c2.8-4.1,5.5-8.4,8-12.9c0.4,0.8,0.8,1.6,1.3,2.4
			c3.6,5.9,7.8,10.6,12.5,13.9c4.7,3.3,9.8,5.5,15,6.6c5.2,1,9.9,1.2,14.1,0.4c7.8-1.4,15.5-4.8,23-9.9c7.1-4.8,13.9-10.7,20.2-17.6
			l-1.2,4.2c-0.8,2.9-0.8,5.2,0.1,7.1c1.2,2.6,3.2,3.4,4.6,3.7c1.9,0.3,3.8-0.1,5.8-1.4c1.8-1.2,3.3-3,4.3-5.6
			c0.3-0.6,1-2.1,2.9-7.3l5.6-14.5c2.2-5.7,4.5-11.8,7-18.4c2.5-6.6,4.9-12.8,7.1-18.8c2.2-6,4.2-11.2,5.9-15.6c1.1-3,2-5.3,2.6-6.9
			c0.8,0.1,1.7,0.3,2.5,0.5c2.1,0.5,4.5,0.5,7.1,0c1.8-0.3,3-0.6,3.8-0.9c0.7-0.2,1.2-0.3,1.6-0.4c0.6-0.1,1.2-0.3,1.8-0.5
			c0.1,0,0.5-0.2,1.8-0.4c0.9-0.2,1.2,0.1,1.4,0.4c0.7,0.8,1.1,1.7,1.3,2.8c0.4,2,0.1,4.8-1,8.3c-1.1,3.8-2.7,8.6-4.8,14.2
			c-0.7,2.6-1.6,5.3-2.6,8c-1,2.8-2,5.6-2.8,8.4c-0.9,2.8-1.6,5.6-2.1,8.1c-0.6,2.8-0.7,5.3-0.5,7.7c0.4,2.9,1.3,5.9,2.8,9
			c1.5,3.2,3.6,5.9,6.2,8.3c2.6,2.4,5.8,4.2,9.4,5.5c3.8,1.3,8.2,1.5,13.3,0.6c4.8-0.9,9.7-3.3,14.3-7c4.5-3.6,8.9-8,13-13.1
			c4.1-5,8-10.5,11.5-16.4c3.5-5.8,6.7-11.5,9.4-16.8c2.7-5.4,5.1-10.3,6.9-14.6c1.9-4.4,3.1-7.5,3.9-9.4
			C1099.5,416.1,1099.8,413.3,1099,411.3z M910.1,414.5c1.2-0.2,2,0,2.7,0.7c0.5,0.5,1.4,1.8,1.7,5.4c0.2,2.8-0.7,6.5-2.7,10.9
			c-2.1,4.6-6.3,10.5-12.6,17.4c-2.1,2.3-4.2,4.5-6.3,6.6c-0.6,0.5-1.1,1.1-1.7,1.6c0.2-4.9,0.8-9.5,1.7-13.7c1.3-5.9,3-11,5-15.3
			c2-4.2,4.1-7.5,6.4-9.9C907.1,415.6,909,414.7,910.1,414.5z M577.2,482.5c0.1,1.6-0.3,3.8-1.1,6.6l-1.5,5.1l5-2.2
			c1.3-0.6,2.5-1.1,3.8-1.5c1.6-0.5,2.9-1.1,3.8-1.6c0.1,0,0.1-0.1,0.2-0.1c0,0.2,0,0.4,0,0.7c0.1,2.9,0.1,6.6,0.1,11
			c0,4.4-0.2,9.1-0.6,14c-0.3,4.9-0.6,9.2-0.8,12.8l0,0.1c0,0.1,0,0.9-1.2,3.6c-0.9,2-2.1,4.4-3.7,6.9c-1.5,2.5-3.4,5-5.4,7.5
			c-2,2.4-4.2,4.5-6.3,6.1c-2,1.5-4.1,2.6-6.2,3c-1.7,0.4-3.5,0-5.2-1.1c-0.2-0.1-1.2-1-2.4-4.9c-1-3.1-1.6-6.9-1.8-11.3
			c-0.2-4.4-0.1-9.4,0.5-14.6c0.6-5.2,1.7-10.3,3.5-15.1c4.1-11.8,8.2-20.1,12.1-24.9c3.2-3.8,5.1-4.9,5.9-5.1c0.1,0,0.2,0,0.2,0
			c0.2,0.3,0.4,0.7,0.7,1.4C576.9,479.5,577.1,480.5,577.2,482.5z"/>
	</g>
	<g>
		<path class="st5" d="M275.1,279.5L275.1,279.5c3.6-5.9,6.3-12.6,8.2-19.9c1.9-7.3,2.2-15.4,1-23.9c-1.7-11.7-4.9-19.4-9.7-23.7
			c-4.9-4.3-10.6-5.9-16.9-4.7c0,0,0,0,0,0c-6.2,1.3-11.5,3.7-15.7,7c-4.3,3.3-7.8,7.5-10.4,12.6c-2.6,4.9-4.5,10.8-5.9,17.4
			c-1.3,6.5-2.3,13.8-2.8,21.7c-0.4,4.7-0.7,9.7-0.9,14.8c-0.2,4.3-0.3,8.6-0.2,12.9c-2,0.1-3.7,0-5.3-0.2c-2.6-0.3-4-0.6-4.8-0.8
			c-0.7-0.3-2.6-0.9-4.2,0.1c-0.5,0.3-1.5,1.2-1.6,2.8c-0.1,1.3,0,3,0.3,5.5l0.1,0.9l0.7,0.6c1.5,1.4,3.4,2.5,5.4,3.3
			c1.9,0.8,3.9,1.4,5.8,1.9c1.3,0.2,2.6,0.5,4,0.7c0.3,8.2,0.6,16.1,1,23.4c0.4,7.7,0.7,14.1,0.7,19.2c0.1,6.2,0.1,12.9,0,20
			c-0.1,7-0.3,14-0.5,20.8l-0.7,19.1c-0.1,2.3-0.2,4.4-0.3,6.4c-1.3-2.9-2.8-6.6-4.4-11c-1.8-5.1-3.7-10.7-5.6-16.6
			c-1.9-6-3.8-12.4-5.7-19.2c-1.9-6.8-3.6-13.4-5.2-19.8c-1.6-6.5-3.1-12.7-4.4-18.5c-1.3-5.7-2.4-10.8-3.2-15.2
			c-1.3-6.6-2.9-13.8-4.7-21.4c-1.9-7.7-3.8-15.2-5.7-22.3c-1.9-7.1-3.8-13.7-5.6-19.5c-1.7-5.7-3-10.1-3.8-13.2
			c-1.5-5.4-4-8.8-7.4-10.2c-3.5-1.4-8.1-0.4-14.2,3.1c-1.3,0.7-2.6,1.5-3.7,2.4c-1,0.7-2.1,1.6-3.4,2.7c-1.3,1.1-2.6,2.2-3.7,3.4
			l-0.7,0.7l-2.8,67.6c-0.3,8.7-0.7,16.4-1.1,22.8c-0.3,5.1-0.6,11.2-1,18.2c-0.4,7.1-0.8,14.5-1.3,22.4c-0.5,7.9-1,16-1.5,24.2
			c-0.5,8.3-0.8,16.4-1,24c-0.2,7.6-0.2,14.7-0.2,21.1c0,6.4,0.4,11.9,1,16.1c0.9,6.7,2.3,11.5,4.1,14.9c1.9,3.5,3.9,5.9,6.2,7.4
			c2.4,1.6,4.8,2.3,7.4,2.2c2.1-0.1,3.9-0.3,5.5-0.6c1.4-0.3,3-0.8,5-1.5c1.4-0.6,3.1-1.4,5.3-2.5c2.3-1.1,4.9-2.7,7.8-4.7l1.8-1.3
			l-1-1.9c-1.9-3.4-3.5-7.5-4.9-12.1c-1.4-4.8-2.6-9.5-3.7-13.9c-1.2-5.1-2.2-10.4-3.1-15.7c-0.7-4.7-1.3-10.8-1.6-17.9
			c-0.3-7.1-0.6-14.9-0.8-23.1c-0.2-8.2-0.3-16.6-0.2-25c0.1-8.5,0.2-16.7,0.2-24.4c0.1-7.5,0.2-14.5,0.4-20.6
			c0.2-6.1,0.4-10.7,0.7-14c0.2-3.9,0.3-7.9,0.3-11.9c0.7,2.2,1.5,4.5,2.2,7c2.5,8,5.2,17.2,8.1,27.3c2.1,7.8,4.1,16.2,6,25.1
			c1.9,8.9,4,18,6.2,27c2.2,8.9,4.6,17.9,7.1,26.5c2.5,8.6,5.3,16.7,8.4,23.9c3,6.7,5.8,12.9,8.4,18.4c2.7,5.7,5.5,10.5,8.4,14.3
			c3.1,4,6.3,6.2,9.6,6.7c3.3,0.5,6.8-0.4,10.7-2.8c1.3-0.8,2.5-1.9,3.7-3.1c1.1-1,2.1-2.3,3-3.8c1-1.5,1.7-3.3,2.2-5.3l0.1-0.4
			c0.5-7.8,1-15.2,1.4-22.3c0.5-7.1,0.8-13.5,1-18.8c0.2-6.3,0.5-12.2,0.7-17.6c0.2-5.7,0.3-12.1,0.3-19.2c0-7.2-0.1-14.8-0.3-22.7
			l-0.5-24.7c-0.2-7.9-0.3-15.9-0.3-23.9c4.3-2.3,8.6-5.5,13-9.4C267.2,290.6,271.5,285.4,275.1,279.5z M266.1,236.4
			c0.5,3.2,0.4,7-0.3,11.2c-0.7,4.2-1.9,8.7-3.7,13.1c-1.8,4.5-4.1,8.9-7,13.1l0,0c-1.7,2.5-3.5,4.8-5.5,6.9
			c0.1-1.2,0.1-2.5,0.2-3.8c0.2-9.9,1-18,2.2-23.9c1.2-5.9,2.7-10.6,4.3-13.8c1.9-3.9,3.4-5.6,4.4-6.3c2-1.6,2.7-1.7,2.8-1.7
			c0.5-0.1,0.8,0,1.2,0.5C265.3,232.8,265.8,234.3,266.1,236.4z"/>
		<path class="st5" d="M621.4,200.8c1.2,0.6,3,1.2,5.3,0.8c0.6-0.1,1.2-0.3,1.8-0.5c2.2-0.8,4.2-2.1,6.1-3.8c1.8-1.6,3.4-3.7,4.7-6
			c1.3-2.4,2.1-4.8,2.3-7.1c0.2-2.1,0-4.4-0.5-6.9c-0.6-2.5-1.5-4.7-2.7-6.6c-1.3-2-2.9-3.6-4.8-4.7c-2.2-1.2-4.7-1.4-7.3-0.4
			c-2.3,0.9-4.6,2.6-7.2,5.4c-2.5,2.7-4.4,5.8-5.7,9.3c-1.4,3.6-1.6,7.3-0.7,11C613.5,195.2,616.5,198.4,621.4,200.8z"/>
		<path class="st5" d="M778.4,171.6c1.2,0.6,3,1.2,5.3,0.8c0.6-0.1,1.2-0.3,1.8-0.5c2.2-0.8,4.2-2.1,6.1-3.7c1.8-1.6,3.4-3.7,4.7-6
			c1.3-2.4,2.1-4.8,2.3-7.1c0.2-2.1,0-4.4-0.5-6.9c-0.6-2.5-1.5-4.7-2.7-6.6c-1.3-2-2.9-3.6-4.8-4.7c-2.2-1.2-4.7-1.4-7.3-0.4
			c-2.3,0.9-4.6,2.6-7.2,5.4c-2.5,2.7-4.4,5.8-5.7,9.3c-1.4,3.6-1.6,7.3-0.7,11C770.5,166.1,773.4,169.2,778.4,171.6z"/>
		<path class="st5" d="M1082.1,190.8L1082.1,190.8c-1.2-0.5-3.2-0.7-5.8,1.2c-1.6,1.2-3.1,3.3-4.5,6.3c-1.6,3.8-4.1,9-7.4,15.3
			c-3.3,6.4-6.9,12.7-10.8,18.9c-3.8,6.2-7.8,11.6-11.8,16.2c-4.7,5.3-7.8,6.8-9.6,7.1c-2.4,0.4-2.8-0.4-3.1-1.5
			c-0.7-2.4-0.9-5.5-0.6-9.1c0.8-6.3,1.4-12.1,1.8-17.3c0.4-5.1,0.6-9.6,0.8-13.5l0.7-11.9c0.5-6.1,0.2-11.6-1.1-16.5
			c-1.2-4.9-3.1-9-5.4-12.4c-2.4-3.4-5.4-6-8.8-7.6c-3.5-1.6-7.3-2.1-11.2-1.4c-4.4,0.8-8.6,2.5-12.4,5.1c-3.7,2.5-7.2,5.4-10.3,8.8
			c-3,3.3-5.8,7-8.2,10.8c0,0,0,0,0,0c0.1-1.3,0.3-2.6,0.4-3.9c0.3-2.2,0.6-3.9,0.8-5.2l0.4-1.8l-1.6-0.9c-1.5-0.8-3.1-1.3-4.9-1.6
			c-1.6-0.2-3.1-0.3-4.5-0.2c-1.6,0.1-3.1,0.3-4.6,0.6l-0.3,0.1c-1.7,0.5-3.3,1.2-4.8,2.1c-1.4,0.7-2.8,1.5-4.1,2.4
			c-1.4,1-2.7,2.2-3.9,3.6l-0.5,0.6l-0.1,0.8c-0.4,5.5-0.7,10.9-1,15.9c-0.8,0.9-1.6,1.8-2.5,2.7c-3,3.2-6.3,6.5-9.9,9.7
			c-3.6,3.2-7.5,6.4-11.4,9.4c-2.7,2.1-5.3,4-7.9,5.7c0-0.4-0.1-0.7-0.1-1.1c-0.2-2.1-0.5-3.9-0.8-5.3c-1.4-7.1-3.8-13-7.3-17.6
			c-3.4-4.6-7.2-8.2-11.3-10.9c-4.1-2.7-8.2-4.5-12.2-5.5c-3.9-1-7.1-1.3-9.7-1.1c-0.4-0.1-0.8-0.1-1.1-0.2c-0.8-0.1-1.6-0.1-2.4,0
			c-3.4,0.6-6.8,1.7-10.2,3.2c-3.4,1.5-6.5,3.3-9.3,5.4c-2.8,2.2-5.3,4.7-7.2,7.6c-1.9,2.8-3.1,5.9-3.7,9.2c-2.3,4.1-4.2,8.4-5.6,13
			c-1.4,4.7-2.5,9.3-3.1,13.9c-0.6,4.5-0.9,8.9-1,13.1c0,1.5,0,2.9,0.1,4.5c-3.3,5.4-6.8,10.8-10.6,15.9c-4.5,6.2-9,11.7-13.6,16.4
			c-4.3,4.4-8,6.9-11,7.5c-0.7,0.1-1.4,0-2.1-0.3c-0.5-0.2-1.4-0.9-2.8-2.9l-0.1-0.1c-0.6-0.8-1.5-2.5-1.8-6.1
			c-0.3-3.2-0.3-6.8-0.1-10.5c0.2-3.8,0.6-7.8,1.1-11.9c0.5-4.1,0.9-7.9,1.2-11.2c0.3-3.2,0.8-7.5,1.6-12.7
			c0.8-5.4,1.6-10.6,2.2-15.4c0.7-5,1.2-9.4,1.6-13c0.6-5.9,0.6-7-0.8-8l-0.4-0.2l-0.4-0.1c-0.8-0.2-1.8-0.2-5.1,0.6
			c-2.3,0.5-4.8,1.3-7.5,2.2c-2.6,1-5.2,2-7.6,3.2c-2.8,1.4-4.7,2.9-5.6,4.6c-2.3,4.3-3.9,10.2-4.8,18.1c-0.8,7.6-1.2,15.6-1.1,23.8
			c0,1,0,1.9,0.1,2.9l0,0.1c-1.5,2.8-3.2,6-5.1,9.3c-2.7,4.8-5.8,9.7-9,14.7c-3.3,5-6.6,9.8-9.9,14.1c-3.3,4.2-6.5,7.8-9.8,10.5
			c-2.9,2.5-5.5,3.8-7.7,3.9l-0.2,0c-2.9,0.4-5.3,0-7.5-1.2c-1.9-1.1-3.8-3.4-5.7-6.6c-1.9-3.2-3-8.5-3.4-15.5
			c2.6-11.2,4.8-21.8,6.7-31.4c1.9-9.9,3.6-18.7,4.8-26.3c1.4-8.7,2.6-16.8,3.6-24.1c0.5-3.2,0.8-6.3,0.9-9.2
			c0.1-2.2,0.2-4.4,0.3-6.6c0.8-0.2,1.6-0.4,2.3-0.5c1.3-0.3,2.4-0.6,3.4-0.8c5.6-1,10.5-1.8,14.8-2.2c4.3-0.4,8.1-0.8,11.2-1
			c3.1-0.2,5.7-0.3,7.9-0.2c2.4,0.1,4.5,0.1,6.4-0.1c2.5,0,4.7-0.9,6.3-2.7c1.5-1.6,2.5-3.5,2.9-5.5c0.4-1.9,0.4-3.8-0.1-5.5
			c-0.6-2.4-2.3-3.8-4.7-4.1c-1.2-0.1-3.1-0.4-5.7-0.9c-2.8-0.5-6.4-0.9-10.7-1.1c-4.4-0.2-9.6-0.1-15.5,0.1c-5.2,0.3-11,0.9-17.4,2
			c-0.1-7.9-0.5-14.6-1.4-19.8c-1.4-8.3-2.7-10.6-3.8-11.7l-0.3-0.2c-1.6-1.3-3.7-1.8-6.4-1.7c-2.2,0.1-4.5,0.5-6.8,1.3
			c-2.2,0.7-4.3,1.6-6.2,2.6c-2.3,1.2-3.6,2.6-4.2,4.1c-1.4,3-2.6,7.8-3.6,14.5c-1,6.2-1.8,13.4-2.5,21.6c-2.4,0.9-4.8,1.7-7.3,2.4
			c-3,0.9-6.1,1.8-9.4,2.5c-4.5,1-8.7,1.7-12.5,2.2c-4.1,0.5-7.6,0.8-11,1.1l-0.3,0c-1.6,0.3-3.1,1.2-4.7,2.8
			c-1.3,1.4-2.4,3-3.1,4.7c-0.8,1.8-1.1,3.6-1,5.3c0.1,2.4,1.7,4.2,4.3,4.9c2.9,0.8,7,1.4,12.5,1.8c5.5,0.4,11.3,0,17.1-1.1
			c2.6-0.5,5.4-1.2,8.4-2.1l5.4-1.7c-0.4,9.4-0.7,19.2-0.8,29.2c-0.1,11.2-0.1,21.8-0.1,31.5l0,2.6c-0.6,0.7-1.1,1.5-1.6,2.4
			l-0.1,0.2c-1.6,3.6-4.3,8.6-8,14.9c-3.7,6.3-7.8,12.6-12.3,18.8c-4.5,6.2-9,11.7-13.6,16.4c-4.3,4.4-8,6.9-11,7.5
			c-0.7,0.1-1.4,0-2.1-0.3c-0.5-0.2-1.4-0.9-2.8-2.9l-0.1-0.1c-0.6-0.8-1.5-2.5-1.8-6.1c-0.3-3.2-0.3-6.8-0.1-10.5
			c0.2-3.8,0.6-7.8,1.1-11.9c0.5-4.2,0.9-7.9,1.1-11.2c0.3-3.2,0.8-7.5,1.6-12.7c0.8-5.4,1.6-10.6,2.3-15.4c0.7-5,1.2-9.4,1.6-13
			c0.6-5.9,0.6-7-0.8-8l-0.4-0.2l-0.4-0.1c-0.8-0.2-1.8-0.2-5.1,0.6c-2.3,0.5-4.8,1.3-7.5,2.2c-2.6,1-5.2,2-7.6,3.2
			c-2.8,1.4-4.7,2.9-5.6,4.6c-2.3,4.3-3.9,10.2-4.8,18.1c-0.8,7.6-1.2,15.6-1.1,23.8c0,0.8,0,1.6,0.1,2.4l0,0.5l-0.8,1.8
			c-1.6,3.5-3.6,7.5-6,11.9c-2.4,4.5-5.1,9.1-8,13.8c-2.9,4.7-5.9,9-9,13.1c-3.1,3.9-6.2,7.3-9.2,10c-2.8,2.5-5.6,4-8.1,4.5
			c-4.6,0.8-5.5,0.1-5.5,0c-0.9-1-1.7-2.4-2.4-4.1c-0.9-2.9-0.6-6.5,0.9-10.8c1.6-4.7,3.3-9,5.1-12.8c3-6.3,5.5-12.2,7.5-17.4
			c2.1-5.7,2.4-11,0.9-15.6c-0.6-2.2-1.5-4.5-2.7-7c-1.2-2.6-2.7-5-4.5-7.1c-1.9-2.2-4.1-3.9-6.6-5.2c-2.7-1.4-5.9-1.7-9.5-1
			c-2.8,0.5-4.7,1.1-6.1,1.8c-0.5,0.2-1.8,0.8-5.2,1.4c-1.7,0.3-2.6,0.3-3,0.2c0.9-2.7,1.4-5.6,1.4-8.5c0-3.9-0.4-7-1.2-9.4
			c-1.1-3.6-3.1-6.9-6-9.9c-3.3-3.4-7.9-4.5-13.7-3.4c-3.3,0.6-6.3,2.6-9,6.1c-2.5,3.1-4.6,6.7-6.4,10.7c-1.7,4-3,8-3.7,12.1
			c-0.8,4.4-0.7,7.8,0.2,10.3c1.1,3.1,2.1,5,3.4,5.9c0.7,0.5,1.8,1.2,3.3,2.2c-0.7,2.1-1.6,4.8-2.7,8.4c-1.5,4.7-3.1,10-4.8,15.9
			c-0.9,3.2-1.9,6.5-2.8,9.9c-0.5,0.8-1,1.7-1.4,2.6c-2.7,4.8-5.7,9.7-9,14.7c-3.3,5-6.6,9.8-9.9,14.1c-3.3,4.2-6.5,7.8-9.8,10.5
			c-2.9,2.5-5.5,3.8-7.7,3.9l-0.2,0c-2.9,0.4-5.3,0-7.5-1.2c-1.9-1.1-3.8-3.4-5.7-6.6c-1.9-3.2-3-8.5-3.4-15.5
			c2.6-11.1,4.8-21.7,6.7-31.4c1.9-9.8,3.6-18.7,4.8-26.3c1.4-8.7,2.6-16.8,3.6-24.1c0.5-3.2,0.8-6.3,0.9-9.2
			c0.1-2.2,0.2-4.4,0.3-6.6c0.8-0.2,1.6-0.4,2.3-0.5c1.3-0.3,2.4-0.6,3.4-0.8c5.6-1,10.5-1.8,14.8-2.2c4.3-0.4,8.1-0.8,11.2-1
			c3.1-0.2,5.7-0.3,7.9-0.2c2.4,0.1,4.5,0.1,6.4-0.1c2.5,0,4.7-0.9,6.3-2.7c1.5-1.6,2.5-3.5,2.9-5.5c0.4-1.9,0.4-3.8-0.1-5.5
			c-0.6-2.4-2.3-3.8-4.7-4.1c-1.2-0.1-3.2-0.4-5.7-0.9c-2.8-0.5-6.4-0.9-10.7-1.1c-4.4-0.2-9.6-0.1-15.5,0.1c-5.2,0.3-11,0.9-17.4,2
			c-0.1-7.9-0.5-14.6-1.4-19.8c-1.4-8.3-2.7-10.6-3.8-11.7l-0.3-0.2c-1.6-1.3-3.7-1.8-6.4-1.7c-2.2,0.1-4.5,0.5-6.8,1.3
			c-2.2,0.7-4.3,1.6-6.2,2.6c-2.3,1.2-3.6,2.6-4.2,4.1c-1.4,3-2.6,7.8-3.6,14.5c-1,6.2-1.8,13.4-2.5,21.6c-2.4,0.9-4.9,1.7-7.3,2.4
			c-3,0.9-6.1,1.8-9.4,2.5c-4.5,1-8.7,1.7-12.5,2.2c-4.1,0.5-7.7,0.8-11,1.1l-0.3,0c-1.6,0.3-3.1,1.2-4.7,2.8
			c-1.3,1.4-2.4,3-3.1,4.7c-0.8,1.8-1.1,3.6-1,5.3c0.1,2.4,1.7,4.2,4.3,4.9c2.9,0.8,7,1.4,12.5,1.8c5.5,0.4,11.3,0,17.1-1.1
			c2.6-0.5,5.4-1.2,8.4-2.1l5.4-1.7c-0.4,9.4-0.7,19.2-0.8,29.2c-0.1,11.2-0.1,21.8-0.1,31.5c0,1.4,0,2.8,0,4.1l-1.7,3.5
			c-1.6,3.2-3.5,7.1-5.7,11.4c-2.3,4.3-4.8,9-7.6,13.8c-2.7,4.8-5.6,9.4-8.5,13.5c-2.8,4.1-5.7,7.6-8.5,10.5
			c-2.5,2.6-4.8,4.1-6.8,4.4c-1,0.2-1.9,0.1-2.8-0.1c-0.7-0.2-1.5-0.9-2.3-1.9c-1-1.3-2-3.4-3.1-6.2c-1-2.8-2.2-6.5-3.5-11.1
			c0.5-1.2,1.1-2.4,1.8-3.8c0.8-1.8,1.6-4.1,2.2-6.8c0.6-2.6,1.2-5.7,1.7-9.4c0.5-3.6,0.9-8.1,1.2-13.1c0.6-6.4,0.6-12.5-0.2-18.3
			c-0.7-5.7-1.4-9.9-1.9-12.7c-0.2-1.3-1.3-4.2-6.1-4.5c-0.9,0-1.9,0-3,0.1c-1.2,0.1-2.5,0.4-4,0.9c-3.9,0.9-6.7,2.1-8.4,3.7
			c-1.8,1.6-3.3,4.8-4.6,9.8c-0.7,2.4-1.4,5.5-2.2,9.5c-0.8,4-1.4,8.5-1.9,13.4c-0.4,4.9-0.6,10.2-0.6,15.7
			c0.1,5.6,0.6,11.3,1.7,16.9c0.5,2.7,1.3,5.4,2.2,7.9c-2.3,5.4-5.1,10-8.4,13.7c-3.2,3.8-6.8,6-10.9,6.7
			c-6.2,1.2-10.4,0.3-12.9-2.5c-2.7-3.1-4.4-8.5-5-15.9c-0.3-3.4-0.2-8,0.2-13.9c0.4-5.2,1.3-12.1,2.4-20.5c1.2-8.4,3-19.1,5.5-31.8
			l0.5-2.4l-2.5-0.4c-3.4-0.6-7.3,0.3-10.8,1.3l-0.2,0.1c-1.9,0.7-3.7,1.4-5.4,2.1l-0.2,0.1c-4.8,2.5-8.3,6.2-10.4,10.9
			c-1.9,4.4-3.2,9.4-3.9,14.9c-0.1,0.7-0.4,2.3-0.8,7c-0.3,3.7-0.6,8.2-0.9,13.3c-0.3,5.2-0.3,10.9-0.1,16.9
			c0.2,6,0.9,11.8,1.9,17.1c0.6,3.2,1.8,6.5,3.6,10.1c1.8,3.6,4.4,6.9,7.6,9.7c3.3,2.8,7.4,5,12.5,6.3c5,1.4,11.2,1.4,18.3,0.1
			c7.2-1.3,13.4-4.4,18.6-9.1c4-3.6,7.4-8.2,10.1-13.5c2.5,3.9,5.2,7,7.9,9.1c4,3.2,8.8,4.2,14.3,3.2c5.8-1.1,11.6-4.5,17.1-10.1
			c5.3-5.4,10.4-11.9,15.2-19.3c3.6-5.6,7-11.6,10.1-17.8c0.1,2,0.3,3.6,0.4,4.7c0.3,3.6,1.3,7.4,3.1,11.4c1.8,4,4.2,7.6,7.3,10.6
			c3.1,3.1,7.1,5.6,11.8,7.2c4.7,1.7,10.3,1.9,16.6,0.8c4.7-0.9,9.7-4.2,15.3-10c1.4-1.5,2.9-3.1,4.3-4.8c0,1.1,0.3,2.1,0.7,3
			c1.2,2.6,3.2,3.4,4.6,3.7c1.9,0.3,3.8-0.1,5.8-1.4c1.8-1.2,3.3-3,4.3-5.6c0.3-0.6,1-2.1,2.9-7.3l5.6-14.5c2.2-5.7,4.5-11.8,7-18.4
			c2.5-6.6,4.8-12.8,7.1-18.8c2.2-6,4.2-11.2,5.9-15.6c1.2-3,2-5.3,2.6-6.9c0.8,0.1,1.7,0.3,2.5,0.5c2.1,0.5,4.5,0.5,7.1,0
			c1.8-0.3,3-0.6,3.8-0.9c0.7-0.2,1.2-0.3,1.6-0.4c0.6-0.1,1.2-0.3,1.8-0.5c0.1,0,0.5-0.2,1.8-0.4c0.9-0.2,1.2,0.1,1.4,0.4
			c0.7,0.8,1.1,1.7,1.3,2.8c0.4,2,0.1,4.8-1,8.3c-1.1,3.8-2.8,8.6-4.8,14.1l-0.1,0.2c-0.7,2.6-1.6,5.3-2.6,8c-1,2.8-2,5.6-2.8,8.4
			c-0.9,2.8-1.6,5.6-2.1,8.1c-0.6,2.8-0.7,5.3-0.5,7.7c0.4,2.9,1.3,5.9,2.8,9c1.5,3.2,3.6,5.9,6.2,8.3c2.6,2.4,5.8,4.2,9.4,5.5
			c3.8,1.3,8.2,1.5,13.3,0.6c4.8-0.9,9.6-3.3,14.3-7c4.5-3.6,8.9-8,13-13.1c4.1-5,8-10.5,11.5-16.4c2.5-4.2,4.9-8.4,7.1-12.4
			c0.7,3.8,1.4,7,2.3,9.5c0.8,3.3,2.5,6.3,4.8,9c2.3,2.6,5,4.8,8,6.4c3,1.7,6.3,2.8,9.7,3.5c3.5,0.6,6.9,0.6,10.2-0.3
			c4.2-1,8.9-4.3,14.4-10.2c5.2-5.5,10.3-12,15.4-19.4c4.3-6.3,8.4-12.8,12.2-19.5c0.2,3,0.4,5.3,0.6,6.9c0.3,3.6,1.3,7.4,3.1,11.4
			c1.8,4,4.2,7.6,7.3,10.6c3.1,3.1,7.1,5.6,11.8,7.2c4.7,1.7,10.3,1.9,16.6,0.8c4.7-0.9,9.6-4.2,15.3-10
			c5.3-5.5,10.5-12.4,15.7-20.3c3.3-5,6.4-10.4,9.5-16c0.7,4.3,1.6,7.9,2.5,10.7c0.8,3.3,2.5,6.3,4.8,9c2.3,2.6,5,4.8,8,6.4
			c3,1.7,6.3,2.8,9.7,3.5c3.5,0.6,6.9,0.6,10.2-0.3c4.2-1,8.9-4.3,14.4-10.2c5.1-5.5,10.3-12,15.4-19.4c1.6-2.3,3.2-4.7,4.7-7.1
			c1.5,4.9,3.7,9.4,6.5,13.3c3.1,4.5,7.3,7.9,12.5,10.4c5.2,2.5,11.8,3,19.6,1.6c6.5-1.2,12.4-3.6,17.5-7.1c5-3.5,9.3-7.8,12.8-13
			c3.5-5.1,6.2-11,8.2-17.5c1.8-6,3-12.4,3.6-19c4.8-2.7,9.6-6.3,14.5-10.6c5.2-4.6,10-9.2,14.3-13.8c0.5-0.5,1-1,1.4-1.5
			c-0.1,3.5-0.2,6.8-0.2,9.8c-0.3,5.2-0.6,10.8-0.9,16.6c-0.3,5.8-0.7,11.3-1.1,16.4l-1,13.5c-0.3,4-0.4,6.4-0.4,7.4
			c-0.1,1.8,0.7,2.9,1.4,3.5c1.1,0.9,2.7,1.2,4.8,0.8c2.5-0.5,5.2-1.5,8.3-3.3c3-1.7,5.7-3.7,8.2-5.9c2.8-2.6,4.3-5,4.6-7.5l0-0.2
			c0.1-2.5,0.2-5.2,0.4-7.9c0.2-2.9,0.3-6.2,0.4-9.9c0.1-3.7,0.3-7.8,0.5-12.4c0.2-4.4,0.5-9.7,0.9-15.7c2.1-4.8,4.3-9.4,6.5-13.8
			c2.3-4.5,4.6-8.6,7-12.2c2.4-3.5,4.8-6.4,7.3-8.6c2.3-2.1,4.7-3.3,7-3.8c0.8-0.1,1.7-0.1,2.5,1.6c1.1,2.1,1.8,5,2.2,8.7
			c0.4,3.8,0.5,8.2,0.3,13.1c-0.2,5-0.5,10-0.9,14.9c-0.4,4.9-0.8,9.5-1.3,13.9c-0.5,4.3-0.7,7.8-0.8,10.4
			c-0.2,4.1,0.3,7.9,1.6,11.3c1.3,3.5,3.2,6.4,5.7,8.7c2.5,2.4,5.6,4.1,9.2,5.1c3.6,1,7.7,1.1,12.1,0.3c4.3-0.8,8.6-2.9,12.8-6.3
			c4-3.2,8-7.2,11.8-11.9c3.8-4.6,7.3-9.7,10.5-15.1c3.2-5.3,6.2-10.7,8.9-15.9c2.7-5.2,5-10.1,6.8-14.6c1.9-4.6,3.1-8.2,3.9-10.9
			c1-3.4,1.3-6.2,0.8-8.4C1085.3,194.9,1084.7,191.9,1082.1,190.8z M870.2,286.8c-2.3,0.4-4.1,0.2-5.6-0.6c-1.7-0.9-3.2-2.4-4.5-4.2
			c-1.4-1.9-2.5-4.3-3.4-7c-0.9-2.8-1.7-5.8-2.3-8.8c-0.6-3-0.8-6.2-0.8-9.6c0-1.5,0.1-3,0.1-4.6c3.2,3.5,6.9,6.3,11,8.4
			c6.1,3.3,12.9,4.2,20.2,2.9c1.4-0.3,2.5-0.5,3.6-0.8c-0.5,2-1,4.1-1.7,6c-1,3.2-2.3,6-3.9,8.6c-1.5,2.5-3.4,4.7-5.5,6.4
			C875.3,285.2,873,286.3,870.2,286.8z M887.6,241.6c-5.1,0.9-9.2,0.9-12.1,0c-3-0.9-5.3-2.3-6.8-4.1c-1.7-1.9-2.9-4.2-3.8-6.8
			c-0.9-2.8-1.6-5.6-2.2-8.3c-0.3-1.3-0.3-2.6-0.2-3.9c1.8-3.3,4-6.1,6.4-8.2c2.4-2.1,5.1-3.4,8-3.9c1.4-0.3,2.6,0.1,3.9,1.2
			c1.6,1.3,3.1,3.2,4.5,5.6c1.4,2.5,2.7,5.4,3.6,8.6c1,3.2,1.6,6.5,1.9,9.6l0,0.3c0.2,1.2,0.3,2.6,0.2,4.4c-0.1,1.5-0.1,3-0.2,4.8
			c-0.3,0.1-0.6,0.2-0.9,0.3C889.2,241.3,888.4,241.5,887.6,241.6z"/>
	</g>
	<g>
	</g>
	<g>
	</g>
	<g>
	</g>
	<g>
	</g>
	<g>
	</g>
	<g>
	</g>
</g>
</svg>
