<?xml version="1.0" encoding="utf-8"?>
<!-- Generator: Adobe Illustrator 23.0.1, SVG Export Plug-In . SVG Version: 6.00 Build 0)  -->
<svg version="1.1" id="Layer_1" xmlns="http://www.w3.org/2000/svg" xmlns:xlink="http://www.w3.org/1999/xlink" x="0px" y="0px"
	 viewBox="0 0 400 400" style="enable-background:new 0 0 400 400;" xml:space="preserve">
<g>
	<path d="M268.5,134.9c-1.5-13.2-7.2-21.9-9.9-25.9c-16.8-24.6-44.4-24.2-55.4-24c-28.5,0.4-49.7,16.8-59.7,25.9
		c-10-9.1-31.2-25.4-59.7-25.9c-11-0.2-38.6-0.6-55.4,24c-2.7,4-8.5,12.7-9.9,25.9c-2.8,25.4,12.9,44.6,14.9,47.1v119.9
		c1.2,7.4,7.4,13.1,14.8,13.1h190.6c7.4,0,13.6-5.7,14.8-13.1V182C255.6,179.5,271.3,160.3,268.5,134.9z M48.2,299.4V184.5
		c-1.8-2.1-15.3-18.8-12.9-40.7c1.3-11.4,6.3-18.9,8.6-22.4c14.5-21.2,38.4-20.9,47.9-20.7c24.7,0.4,43,23.6,51.6,31.5
		c8.6-7.8,26.9-31.1,51.6-31.5c9.5-0.1,33.4-0.5,47.9,20.7c2.3,3.4,7.3,10.9,8.6,22.4c2.4,21.9-11.1,38.6-12.9,40.7v114.9H48.2z"/>
	<ellipse cx="79" cy="124" rx="9" ry="4"/>
	<ellipse cx="64" cy="141" rx="6" ry="4"/>
	<circle cx="91.5" cy="155.5" r="7.5"/>
	<g>
		<path d="M319.2,184.1c-3.3-9.2-16.8-25.8-36.6-27.7c-2.6-0.3-9-0.9-10.8,2c-1.3,2.1,0.4,5.2,2.2,7.9c4,6.2,15.3,23.6,34.4,25.8
			c2.4,0.3,8.6,1,10.8-2C320.3,188.5,320,186.4,319.2,184.1z M308.5,182.9c-1.2,1.6-4.6,1.2-5.9,1.1c-10.5-1.2-16.7-10.7-18.9-14.1
			c-1-1.5-1.9-3.2-1.2-4.4c1-1.6,4.5-1.2,5.9-1.1c10.9,1.1,18.3,10.2,20.1,15.2C309,180.9,309.2,182.1,308.5,182.9z"/>
		<path d="M355.8,200c-1.4-0.5-16.8-6.1-30.1,0c-6.9,3.1-7.3,6.7-12.9,7.9c-12.1,2.6-19-11.8-30.1-11.9
			c-15.4-0.1-33.2,27.3-34.4,53.5c-1.5,31.5,20.7,64.3,40.9,65.4c7.7,0.4,11.4-4,25.8-4c14.4,0,17.9,4.4,25.8,4
			c19.4-1.1,38.1-29.4,40.9-55.5C383.8,238.8,377.3,208.1,355.8,200z M370.5,258.7c-2.3,21.7-17.9,45.3-34.1,46.2
			c-6.6,0.4-9.6-3.3-21.5-3.3c-12,0-15.1,3.6-21.5,3.3c-16.8-0.9-35.3-28.3-34.1-54.5c1-21.9,15.9-44.7,28.7-44.6
			c9.2,0.1,15,12.1,25.1,9.9c4.7-1,5-4,10.8-6.6c11.1-5.1,24-0.4,25.1,0C366.9,216,372.3,241.6,370.5,258.7z"/>
	</g>
</g>
</svg>
